<svg width="28" height="28" viewBox="0 0 28 28" fill="none" xmlns="http://www.w3.org/2000/svg">
<path d="M22.9339 12.9837L20.6677 10.7175L18.4015 12.9837C18.009 13.3762 17.334 13.0987 17.334 12.5412V5.45874C17.334 4.65375 17.9877 4 18.7915 4H22.5414C23.3464 4 24.0002 4.65375 24.0002 5.45874V12.5424C24.0002 13.1037 23.3227 13.3724 22.9339 12.9837Z" fill="#B6ADC2"/>
<path d="M14.2085 4H12.1248C11.3248 4 10.666 4.65874 10.666 5.45874V22.5423C10.666 23.3423 11.3248 24.0011 12.1248 24.0011H14.2085C15.0085 24.0011 15.6672 23.3423 15.6672 22.5423V5.45874C15.666 4.65874 15.0085 4 14.2085 4ZM13.9997 20.6661C13.9997 21.1249 13.6247 21.4999 13.166 21.4999C12.7072 21.4999 12.3323 21.1249 12.3323 20.6661V7.33372C12.3323 6.87498 12.7072 6.49998 13.166 6.49998C13.6247 6.49998 13.9997 6.87498 13.9997 7.33372V20.6661Z" fill="#B6ADC2"/>
<rect x="12" y="5" width="3" height="18" fill="#B6ADC2"/>
<path d="M4 21.5V22.5412C4 23.3412 4.65874 24 5.45874 24H7.54247C8.34121 24 8.99996 23.3412 8.99996 22.5412V21.5H4Z" fill="#B6ADC2"/>
<path d="M8.99996 19.8337V10.4587C8.99996 9.65874 8.34122 9 7.54122 9H5.45874C4.65874 9 4 9.65874 4 10.4587V19.8337H8.99996Z" fill="#B6ADC2"/>
<path d="M17.334 21.5V22.5412C17.334 23.3412 17.9927 24 18.7927 24H20.8752C21.6752 24 22.3339 23.3412 22.3339 22.5412V21.5H17.334Z" fill="#B6ADC2"/>
<path d="M22.3339 14.5757V19.8344H17.334V14.7432C17.5427 14.8019 17.7502 14.8344 17.959 14.8344C18.559 14.8344 19.1427 14.6007 19.5752 14.1594L20.6665 13.0757L21.7577 14.1594C21.9339 14.3344 22.1252 14.4669 22.3339 14.5757Z" fill="#B6ADC2"/>
</svg>
