<svg width="29" height="28" viewBox="0 0 29 28" fill="none" xmlns="http://www.w3.org/2000/svg">
<path fill-rule="evenodd" clip-rule="evenodd" d="M4.58157 23H18.5824H20.5823H24.5825C25.685 23 26.582 22.103 26.582 21.0005C26.582 20.885 26.57 20.7845 26.54 20.591L23.543 6.608C23.36 5.6765 22.535 5 21.5809 5H17.5823H16.5814H7.58162C6.6276 5 5.80259 5.6765 5.62408 6.59L2.61053 20.672C2.59403 20.7845 2.58203 20.8865 2.58203 21.0005C2.58203 22.103 3.47905 23 4.58157 23ZM10.5813 11.9977C10.5813 14.2042 12.3768 15.9982 14.5819 15.9982C16.7869 15.9982 18.5809 14.2042 18.5824 11.9992V9.99971C18.5824 9.44771 18.1339 8.99921 17.5819 8.99921C17.0299 8.99921 16.5814 9.44771 16.5814 9.99971V11.9992C16.5814 13.1017 15.6844 13.9972 14.5819 13.9972C13.4793 13.9972 12.5823 13.1002 12.5823 11.9977V9.99821C12.5823 9.44621 12.1338 8.99771 11.5818 8.99771C11.0298 8.99771 10.5813 9.44621 10.5813 9.99821V11.9977Z" fill="#534667"/>
</svg>
