<svg width="24" height="24" viewBox="0 0 24 24" fill="none" xmlns="http://www.w3.org/2000/svg">
<path d="M21.6667 11.6667H12.3333V2.33332C12.3333 2.14934 12.1844 2 12 2C11.8157 2 11.6667 2.14934 11.6667 2.33332V11.6667H2.33332C2.14898 11.6667 2 11.816 2 12C2 12.184 2.14898 12.3333 2.33332 12.3333H11.6667V21.6667C11.6667 21.8507 11.8156 22 12 22C12.1843 22 12.3333 21.8507 12.3333 21.6667V12.3333H21.6666C21.851 12.3333 22 12.184 22 12C22 11.816 21.8511 11.6667 21.6667 11.6667Z" fill="#29AFBD"/>
<path d="M18.231 12.9998H13.4359C13.1948 12.9998 13 13.1951 13 13.4357V18.2308C13 18.4714 13.1948 18.6667 13.4359 18.6667H18.231C18.4721 18.6667 18.6669 18.4714 18.6669 18.2308V13.4357C18.6669 13.1951 18.4721 12.9998 18.231 12.9998Z" fill="#29AFBD"/>
<path d="M10.565 12.9998H5.76989C5.52882 12.9998 5.33398 13.1951 5.33398 13.4357V18.2308C5.33398 18.4714 5.52882 18.6667 5.76989 18.6667H10.565C10.8061 18.6667 11.0009 18.4714 11.0009 18.2308V13.4357C11.0009 13.1951 10.8061 12.9998 10.565 12.9998Z" fill="#29AFBD"/>
<path d="M10.5648 5.33337H5.76987C5.52881 5.33337 5.33398 5.52866 5.33398 5.76926V10.5642C5.33398 10.8048 5.52881 11.0001 5.76987 11.0001H10.5648C10.8059 11.0001 11.0007 10.8048 11.0007 10.5642V5.76926C11.0007 5.52866 10.8059 5.33337 10.5648 5.33337Z" fill="#29AFBD"/>
<path d="M18.231 5.33337H13.4359C13.1948 5.33337 13 5.52867 13 5.76928V10.5644C13 10.805 13.1948 11.0003 13.4359 11.0003H18.231C18.4721 11.0003 18.6669 10.805 18.6669 10.5644V5.76928C18.6669 5.52867 18.4721 5.33337 18.231 5.33337Z" fill="#29AFBD"/>
</svg>
