<svg width="20" height="18" viewBox="0 0 20 18" fill="none" xmlns="http://www.w3.org/2000/svg">
<path fill-rule="evenodd" clip-rule="evenodd" d="M18.2928 9.87772C18.6922 9.81907 19 9.44851 19 9.00013C19 8.51098 18.6337 8.11445 18.1818 8.11445L3.80006 8.11445L8.99531 2.51324L9.07472 2.41408C9.31304 2.06789 9.28757 1.57579 8.9977 1.26071C8.67884 0.914113 8.1608 0.912952 7.84062 1.25811L1.25203 8.36073C1.21445 8.39973 1.1803 8.44258 1.15012 8.48869C0.923035 8.83498 0.953217 9.31838 1.24067 9.6282L7.84067 16.7419L7.9326 16.8275C8.25342 17.084 8.7079 17.0544 8.99775 16.7392C9.31658 16.3926 9.31546 15.8318 8.99526 15.4867L3.79878 9.8858L18.1818 9.8858L18.2928 9.87772Z" fill="#534667"/>
<path d="M18.2928 9.87772L18.3038 10.0277L18.3146 10.0261L18.2928 9.87772ZM3.80006 8.11445L3.69008 8.01245L3.45634 8.26445H3.80006V8.11445ZM8.99531 2.51324L9.10557 2.61551L9.11239 2.607L8.99531 2.51324ZM9.07472 2.41408L9.19211 2.50809L9.19827 2.49913L9.07472 2.41408ZM8.9977 1.26071L8.88731 1.36226V1.36226L8.9977 1.26071ZM7.84062 1.25811L7.73065 1.1561V1.1561L7.84062 1.25811ZM1.25203 8.36073L1.36007 8.46483L1.362 8.46274L1.25203 8.36073ZM1.15012 8.48869L1.27555 8.57095L1.27562 8.57084L1.15012 8.48869ZM1.24067 9.6282L1.35063 9.52618L1.24067 9.6282ZM7.84067 16.7419L7.73041 16.8442L7.73849 16.8518L7.84067 16.7419ZM7.9326 16.8275L7.83014 16.9376L7.83893 16.9446L7.9326 16.8275ZM8.99775 16.7392L9.10815 16.8408L8.99775 16.7392ZM8.99526 15.4867L9.10522 15.3847H9.10522L8.99526 15.4867ZM3.79878 9.8858V9.7358H3.455L3.68882 9.98782L3.79878 9.8858ZM18.1818 9.8858V10.0362L18.1927 10.0354L18.1818 9.8858ZM18.85 9.00013C18.85 9.38209 18.5891 9.6826 18.271 9.72931L18.3146 10.0261C18.7953 9.95554 19.15 9.51493 19.15 9.00013H18.85ZM18.1818 8.26445C18.5399 8.26445 18.85 8.58241 18.85 9.00013H19.15C19.15 8.43956 18.7275 7.96445 18.1818 7.96445V8.26445ZM3.80006 8.26445L18.1818 8.26445V7.96445L3.80006 7.96445V8.26445ZM8.88533 2.41123L3.69008 8.01245L3.91003 8.21646L9.10528 2.61524L8.88533 2.41123ZM8.95763 2.32031L8.87822 2.41947L9.11239 2.607L9.1918 2.50784L8.95763 2.32031ZM8.88731 1.36226C9.12837 1.62429 9.15099 2.03875 8.95116 2.32902L9.19827 2.49913C9.47508 2.09703 9.44677 1.52729 9.10809 1.15915L8.88731 1.36226ZM7.95059 1.36012C8.21122 1.07917 8.62767 1.08004 8.88731 1.36226L9.10809 1.15915C8.73002 0.748185 8.11039 0.746738 7.73065 1.1561L7.95059 1.36012ZM1.362 8.46274L7.95059 1.36012L7.73065 1.1561L1.14206 8.25872L1.362 8.46274ZM1.27562 8.57084C1.30073 8.53248 1.32904 8.49699 1.36005 8.46481L1.14402 8.25665C1.09985 8.30248 1.05986 8.35269 1.02461 8.40655L1.27562 8.57084ZM1.35063 9.52618C1.11172 9.26868 1.08496 8.86159 1.27555 8.57095L1.02468 8.40644C0.76111 8.80837 0.79471 9.36807 1.13071 9.73022L1.35063 9.52618ZM7.95063 16.6399L1.35063 9.52618L1.13071 9.73022L7.73071 16.844L7.95063 16.6399ZM8.03478 16.7177L7.94285 16.6321L7.73849 16.8518L7.83043 16.9373L8.03478 16.7177ZM8.88735 16.6377C8.65066 16.895 8.2853 16.9174 8.02628 16.7103L7.83893 16.9446C8.22154 17.2506 8.76515 17.2137 9.10815 16.8408L8.88735 16.6377ZM8.8853 15.5887C9.15226 15.8765 9.15324 16.3486 8.88735 16.6377L9.10815 16.8408C9.47992 16.4366 9.47867 15.7872 9.10522 15.3847L8.8853 15.5887ZM3.68882 9.98782L8.8853 15.5887L9.10522 15.3847L3.90874 9.78378L3.68882 9.98782ZM18.1818 9.7358L3.79878 9.7358V10.0358L18.1818 10.0358V9.7358ZM18.2819 9.72811L18.1709 9.7362L18.1927 10.0354L18.3037 10.0273L18.2819 9.72811Z" fill="#534667"/>
</svg>
