


<svg width="24" height="24" viewBox="0 0 24 24" fill="currentColor" xmlns="http://www.w3.org/2000/svg">
<path d="M20.7502 2.00024H3.25047C2.56048 2.00024 2.00049 2.56024 2.00049 3.25022V4.08396C2.00049 4.77395 2.56048 5.33394 3.25047 5.33394H3.66671V15.3338C3.20672 15.3338 2.83298 15.7075 2.83298 16.1675C2.83298 16.6275 3.20672 17 3.66671 17H10.6666L7.99289 20.6762C7.72164 21.0487 7.80414 21.5699 8.17664 21.8399C8.55038 22.1124 9.07162 22.0287 9.34037 21.6562L11.1666 19.145V21.1662C11.1666 21.6274 11.5403 21.9999 12.0003 21.9999C12.4603 21.9999 12.8341 21.6262 12.8341 21.1662V19.145L14.6603 21.6562C14.9328 22.0299 15.454 22.1099 15.824 21.8399C16.1965 21.5699 16.279 21.0487 16.0078 20.6762L13.3341 17H20.3339C20.7939 17 21.1677 16.6263 21.1677 16.1663C21.1677 15.7063 20.7939 15.3325 20.3339 15.3325V5.33269H20.7502C21.4402 5.33269 22.0002 4.7727 22.0002 4.08271V3.25022C22.0002 2.56024 21.4402 2.00024 20.7502 2.00024ZM18.6665 15.3338H5.33418V5.33394H18.6677V10.3339V15.3338H18.6665Z" fill="#9689A8" stroke="#9689A8" stroke-width="0.4"/>
<path d="M16.5821 13.5818C16.5283 13.6356 16.4508 13.6668 16.378 13.6668C16.3277 13.6668 16.2739 13.6512 16.2277 13.6246C16.1427 13.5743 14.1697 12.3759 12.9863 11.1926C12.7164 10.9226 12.5198 10.7145 12.3545 10.526C12.6511 10.4913 12.921 10.3601 13.1407 10.1404C13.3604 9.92077 13.4916 9.64734 13.5263 9.35425C13.7113 9.51611 13.9234 9.71671 14.1928 9.9861C15.3762 11.1694 16.5745 13.1425 16.6248 13.2274C16.6936 13.3425 16.6746 13.4893 16.5821 13.5818Z" fill="#9689A8"/>
<path d="M12.1986 9.95807C12.1014 9.95807 12.0003 9.93957 11.8968 9.90258C11.691 9.82858 11.4754 9.68059 11.2574 9.46207C10.9065 9.11175 10.5759 8.07754 10.5134 7.87406C10.4816 7.77173 10.5094 7.66016 10.5857 7.58443C10.6614 7.5087 10.7736 7.48038 10.8759 7.51333C11.0805 7.57692 12.1182 7.91221 12.4685 8.26253C12.6865 8.4799 12.8339 8.69437 12.9061 8.90017C13.0166 9.21234 12.9547 9.50774 12.731 9.73088C12.5807 9.88119 12.398 9.95807 12.1986 9.95807Z" fill="#9689A8"/>
</svg>
