<svg width="28" height="28" viewBox="0 0 28 28" fill="none" xmlns="http://www.w3.org/2000/svg">
<path d="M16.4986 9.59956C16.0386 9.59956 15.6648 9.2408 15.6648 8.79925V7.5994H12.3311V8.79925C12.3311 9.2408 11.9573 9.59956 11.4973 9.59956C11.0373 9.59956 10.6636 9.2408 10.6636 8.79925V7.5994C10.6636 6.71751 11.4111 6 12.3298 6H15.6636C16.5823 6 17.3298 6.71751 17.3298 7.5994V8.79925C17.3323 9.242 16.9586 9.59956 16.4986 9.59956Z" fill="#534667"/>
<path d="M14.5912 16.7058C14.4412 16.7622 14.225 16.8018 14 16.8018C13.775 16.8018 13.5587 16.7622 13.3587 16.6902L4 13.699V19.8026C4 21.0181 5.025 22.0019 6.29125 22.0019H21.7075C22.9737 22.0019 23.9987 21.0181 23.9987 19.8026V13.699L14.5912 16.7058Z" fill="#534667"/>
<path d="M24 10.6017V12.4338L14.2 15.569C14.1337 15.593 14.0662 15.6014 14 15.6014C13.9338 15.6014 13.8663 15.593 13.8 15.569L4 12.4326V10.6005C4 9.385 5.025 8.40112 6.29125 8.40112H21.7075C22.975 8.40112 24 9.385 24 10.6017Z" fill="#534667"/>
</svg>
