<svg width="17" height="16" viewBox="0 0 17 16" fill="none" xmlns="http://www.w3.org/2000/svg">
<path fill-rule="evenodd" clip-rule="evenodd" d="M13.7271 6.85938H3.44141V13.1451H13.7271V6.85938ZM4.65512 7.52538H5.84583C6.04306 7.52538 6.20297 7.68529 6.20297 7.88252V9.07323C6.20297 9.27029 6.04306 9.43037 5.84583 9.43037H4.65512C4.45807 9.43037 4.29798 9.27029 4.29798 9.07323V7.88252C4.29798 7.68529 4.45807 7.52538 4.65512 7.52538ZM5.84504 10.3816H4.65433C4.45727 10.3816 4.29719 10.5416 4.29719 10.7388V11.9295C4.29719 12.1265 4.45727 12.2866 4.65433 12.2866H5.84504C6.04227 12.2866 6.20218 12.1265 6.20218 11.9295V10.7388C6.20218 10.5416 6.04227 10.3816 5.84504 10.3816ZM7.9856 7.52538H9.17631C9.37336 7.52538 9.53345 7.68529 9.53345 7.88252V9.07323C9.53345 9.27029 9.37336 9.43037 9.17631 9.43037H7.9856C7.78837 9.43037 7.62845 9.27029 7.62845 9.07323V7.88252C7.62845 7.68529 7.78837 7.52538 7.9856 7.52538ZM9.17993 10.3832H7.98922C7.79199 10.3832 7.63208 10.5431 7.63208 10.7403V11.9311C7.63208 12.1281 7.79199 12.2882 7.98922 12.2882H9.17993C9.37699 12.2882 9.53707 12.1281 9.53707 11.9311V10.7403C9.53707 10.5431 9.37699 10.3832 9.17993 10.3832ZM11.322 7.52695H12.5127C12.7098 7.52695 12.8699 7.68687 12.8699 7.8841V9.0748C12.8699 9.27186 12.7098 9.43195 12.5127 9.43195H11.322C11.1248 9.43195 10.9649 9.27186 10.9649 9.0748V7.8841C10.9649 7.68687 11.1248 7.52695 11.322 7.52695Z" fill="#9689A8"/>
<path d="M12.8691 3.71484H4.29771C3.50984 3.71484 2.86914 4.35554 2.86914 5.14342V12.2863C2.86914 13.0741 3.50984 13.7148 4.29771 13.7148H12.8691C13.657 13.7148 14.2977 13.0741 14.2977 12.2863V5.14342C14.2977 4.35554 13.657 3.71484 12.8691 3.71484ZM13.3456 12.2863C13.3456 12.5491 13.1319 12.7627 12.8691 12.7627H4.29771C4.03491 12.7627 3.82129 12.5491 3.82129 12.2863V7.06707H13.3449V12.2863H13.3456Z" fill="#9689A8"/>
<path d="M5.72433 2.28711H5.24791C4.98511 2.28711 4.77148 2.50003 4.77148 2.76353V4.66853C4.77148 4.93133 4.98441 5.14495 5.24791 5.14495H5.72433C5.98713 5.14495 6.20075 4.93202 6.20075 4.66853V2.76353C6.20075 2.50003 5.98713 2.28711 5.72433 2.28711Z" fill="#9689A8"/>
<path d="M11.9177 2.28711H11.4413C11.1785 2.28711 10.9648 2.50003 10.9648 2.76353V4.66853C10.9648 4.93133 11.1785 5.14425 11.4413 5.14425H11.9177C12.1805 5.14425 12.3941 4.93133 12.3941 4.66783V2.76353C12.3934 2.50003 12.1805 2.28711 11.9177 2.28711Z" fill="#9689A8"/>
</svg>
