<svg width="28" height="28" viewBox="0 0 28 28" fill="none" xmlns="http://www.w3.org/2000/svg">
<path d="M22.5417 14H15.458C14.6542 14 14.0005 14.6537 14.0005 15.4587V22.5425C14.0005 23.3462 14.6542 24 15.4592 24H22.543C23.3467 24 24.0005 23.3463 24.0005 22.5413V15.4575C24.0005 14.6538 23.3467 14 22.5417 14ZM21.1555 19.5588L17.4055 21.4338C16.9905 21.6413 16.5005 21.34 16.5005 20.875V17.125C16.5005 16.66 16.9917 16.3587 17.4055 16.5662L21.1555 18.4412C21.3667 18.5462 21.5005 18.7638 21.5005 19C21.5005 19.2362 21.3667 19.4538 21.1555 19.5588Z" fill="#534667"/>
<path d="M19.8342 4H6.50049C5.11924 4 4.00049 5.11875 4.00049 6.5C4.00049 7.88125 5.11924 9 6.50049 9H19.8342C21.2155 9 22.3342 7.88125 22.3342 6.5C22.3342 5.11875 21.2142 4 19.8342 4ZM6.50049 7.33375C6.04049 7.33375 5.66674 6.96 5.66674 6.5C5.66674 6.04 6.04049 5.66625 6.50049 5.66625C6.96049 5.66625 7.33424 6.03875 7.33424 6.5C7.33424 6.96 6.96049 7.33375 6.50049 7.33375Z" fill="#534667"/>
<path d="M19.8342 10.6658H6.50049C5.11674 10.6658 4.00049 11.782 4.00049 13.1658C4.00049 14.5495 5.11674 15.6658 6.50049 15.6658H12.3342C12.3342 13.512 13.888 12.332 15.4592 12.332H22.1842C21.8505 11.3583 20.9255 10.6658 19.8342 10.6658ZM6.50049 13.9995C6.04174 13.9995 5.66674 13.6245 5.66674 13.1658C5.66674 12.707 6.04174 12.332 6.50049 12.332C6.95924 12.332 7.33424 12.707 7.33424 13.1658C7.33424 13.6245 6.95924 13.9995 6.50049 13.9995Z" fill="#534667"/>
<path d="M6.50049 17.3342C5.11674 17.3342 4.00049 18.4505 4.00049 19.8342C4.00049 21.218 5.11674 22.3342 6.50049 22.3342H12.3342V17.3342H6.50049ZM6.50049 20.6667C6.04174 20.6667 5.66674 20.2917 5.66674 19.833C5.66674 19.3755 6.04174 19.0005 6.50049 19.0005C6.95924 19.0005 7.33424 19.3755 7.33424 19.8342C7.33424 20.2917 6.95924 20.6667 6.50049 20.6667Z" fill="#534667"/>
</svg>
