<svg width="28" height="28" viewBox="0 0 28 28" fill="none" xmlns="http://www.w3.org/2000/svg">
<path d="M22.5413 14H15.4575C14.6538 14 14 14.6537 14 15.4587V22.5425C14 23.3462 14.6537 24 15.4587 24H22.5425C23.3462 24 24 23.3463 24 22.5413V15.4575C24 14.6538 23.3463 14 22.5413 14ZM21.155 19.5588L17.405 21.4338C16.99 21.6413 16.5 21.34 16.5 20.875V17.125C16.5 16.66 16.9913 16.3587 17.405 16.5662L21.155 18.4412C21.3663 18.5462 21.5 18.7638 21.5 19C21.5 19.2362 21.3663 19.4538 21.155 19.5588Z" fill="#B6ADC2"/>
<path d="M19.8338 4H6.5C5.11875 4 4 5.11875 4 6.5C4 7.88125 5.11875 9 6.5 9H19.8338C21.215 9 22.3338 7.88125 22.3338 6.5C22.3338 5.11875 21.2138 4 19.8338 4ZM6.5 7.33375C6.04 7.33375 5.66625 6.96 5.66625 6.5C5.66625 6.04 6.04 5.66625 6.5 5.66625C6.96 5.66625 7.33375 6.03875 7.33375 6.5C7.33375 6.96 6.96 7.33375 6.5 7.33375Z" fill="#B6ADC2"/>
<path d="M19.8338 10.6658H6.5C5.11625 10.6658 4 11.782 4 13.1658C4 14.5495 5.11625 15.6658 6.5 15.6658H12.3338C12.3338 13.512 13.8875 12.332 15.4588 12.332H22.1838C21.85 11.3583 20.925 10.6658 19.8338 10.6658ZM6.5 13.9995C6.04125 13.9995 5.66625 13.6245 5.66625 13.1658C5.66625 12.707 6.04125 12.332 6.5 12.332C6.95875 12.332 7.33375 12.707 7.33375 13.1658C7.33375 13.6245 6.95875 13.9995 6.5 13.9995Z" fill="#B6ADC2"/>
<path d="M6.5 17.3342C5.11625 17.3342 4 18.4505 4 19.8342C4 21.218 5.11625 22.3342 6.5 22.3342H12.3337V17.3342H6.5ZM6.5 20.6667C6.04125 20.6667 5.66625 20.2917 5.66625 19.833C5.66625 19.3755 6.04125 19.0005 6.5 19.0005C6.95875 19.0005 7.33375 19.3755 7.33375 19.8342C7.33375 20.2917 6.95875 20.6667 6.5 20.6667Z" fill="#B6ADC2"/>
</svg>
