<svg width="21" height="20" viewBox="0 0 21 20" fill="none" xmlns="http://www.w3.org/2000/svg">
<path d="M10.6641 16.8428C11.4925 16.8428 12.1641 16.1712 12.1641 15.3428C12.1641 14.5143 11.4925 13.8428 10.6641 13.8428C9.83564 13.8428 9.16406 14.5143 9.16406 15.3428C9.16406 16.1712 9.83564 16.8428 10.6641 16.8428Z" fill="#9689A8"/>
<path d="M12.1646 17.4033H9.16526C8.33835 17.4033 7.66602 17.9793 7.66602 18.6876V19.3883C7.66602 19.5817 7.84923 19.7386 8.07498 19.7386H13.2549C13.4806 19.7386 13.6638 19.5817 13.6638 19.3883V18.6876C13.6638 17.9793 12.9915 17.4033 12.1646 17.4033Z" fill="#9689A8"/>
<path d="M10.1133 2.3413V1.29902C10.1133 1.13334 10.2476 0.999023 10.4133 0.999023H10.8986C11.0643 0.999023 11.1986 1.13334 11.1986 1.29902V2.3413H10.1133Z" fill="#9689A8"/>
<path fill-rule="evenodd" clip-rule="evenodd" d="M4.86406 2.34082C4.47746 2.34082 4.16406 2.65422 4.16406 3.04082V9.36897C4.16406 9.75557 4.47746 10.069 4.86406 10.069H16.4641C16.8507 10.069 17.1641 9.75557 17.1641 9.36897V3.04082C17.1641 2.65422 16.8507 2.34082 16.4641 2.34082H4.86406ZM10.4733 5.12321C10.341 5.12321 10.22 5.19776 10.1606 5.31591L9.50286 6.62327L8.91722 5.71977C8.81208 5.55756 8.59535 5.5113 8.43315 5.61644C8.27094 5.72158 8.22468 5.9383 8.32982 6.10051L9.24747 7.51624C9.31569 7.62148 9.435 7.68218 9.56023 7.67535C9.68546 7.66852 9.79746 7.59521 9.85383 7.48317L10.689 5.82321H13.2552C13.4485 5.82321 13.6052 5.66651 13.6052 5.47321C13.6052 5.27991 13.4485 5.12321 13.2552 5.12321H10.4733Z" fill="#9689A8"/>
<path d="M6.98792 10.0557L5.76511 10.0568C5.59932 10.0569 5.46484 9.92256 5.46484 9.75677V9.45501C5.46484 9.28932 5.59916 9.15501 5.76484 9.15501H15.8655V9.75677C15.8655 9.92256 15.731 10.0569 15.5652 10.0568L14.3738 10.0557L14.9994 11.3104C15.0716 11.4551 15.0161 11.6309 14.8739 11.708L14.4433 11.9414C14.2948 12.0218 14.1092 11.964 14.0328 11.8134L13.1406 10.0557H11.2304L11.2344 11.8285C11.2347 11.9944 11.1003 12.1291 10.9344 12.1291H10.445C10.2793 12.1291 10.145 11.9948 10.145 11.8291V10.0557H8.22116L7.32497 11.8141C7.24838 11.9643 7.06302 12.022 6.91474 11.9416L6.48425 11.7083C6.34185 11.6311 6.28642 11.4549 6.35901 11.3101L6.98792 10.0557Z" fill="#9689A8"/>
</svg>
