<svg width="16" height="16" viewBox="0 0 16 16" fill="none" xmlns="http://www.w3.org/2000/svg">
<path d="M12.9496 0.324538C12.7715 0.324538 12.5944 0.392247 12.459 0.527663C12.1882 0.798497 12.1882 1.23912 12.459 1.50996L13.9246 2.97559C14.1954 3.24642 14.635 3.24642 14.9069 2.97559C15.1788 2.70475 15.1777 2.26413 14.9069 1.99329L13.4413 0.527663C13.3048 0.392247 13.1277 0.324538 12.9496 0.324538Z" fill="#9689A8"/>
<path d="M3.38828 0.321609C3.56641 0.321609 3.74349 0.389317 3.87891 0.524734C4.14974 0.795568 4.14974 1.23619 3.87891 1.50703L2.41328 2.97266C2.14245 3.24349 1.70286 3.24349 1.43099 2.97266C1.15911 2.70182 1.16015 2.2612 1.43099 1.99036L2.89661 0.524734C3.03307 0.389317 3.21016 0.321609 3.38828 0.321609Z" fill="#9689A8"/>
<path d="M11.2836 12.8245C11.1055 12.8245 10.9284 12.8922 10.793 13.0277C10.5221 13.2985 10.5221 13.7391 10.793 14.01L12.2586 15.4756C12.5294 15.7464 12.969 15.7464 13.2409 15.4756C13.5128 15.2048 13.5117 14.7641 13.2409 14.4933L11.7753 13.0277C11.6388 12.8922 11.4617 12.8245 11.2836 12.8245Z" fill="#9689A8"/>
<path d="M5.05625 12.8216C5.23437 12.8216 5.41146 12.8893 5.54687 13.0247C5.81771 13.2956 5.81771 13.7362 5.54687 14.007L4.08125 15.4727C3.81042 15.7435 3.37083 15.7435 3.09896 15.4727C2.82708 15.2018 2.82812 14.7612 3.09896 14.4904L4.56458 13.0247C4.70104 12.8893 4.87812 12.8216 5.05625 12.8216Z" fill="#9689A8"/>
<path d="M8.16276 0.807617C4.14193 0.807617 0.871094 4.07845 0.871094 8.09928C0.871094 12.1201 4.14193 15.391 8.16276 15.391C12.1836 15.391 15.4544 12.1201 15.4544 8.09928C15.4544 4.07845 12.1836 0.807617 8.16276 0.807617ZM10.6628 11.4326C10.5378 11.5264 10.3919 11.5712 10.2471 11.5712C10.0357 11.5712 9.82734 11.4753 9.69088 11.293L7.60755 8.51491C7.51693 8.39512 7.46901 8.24928 7.46901 8.09824V4.27845C7.46901 3.89512 7.78047 3.58366 8.1638 3.58366C8.54713 3.58366 8.85859 3.89408 8.85859 4.27845V7.86699L10.8034 10.4597C11.0315 10.767 10.9701 11.2024 10.6628 11.4326Z" fill="#9689A8"/>
</svg>
