<svg width="28" height="28" viewBox="0 0 28 28" fill="none" xmlns="http://www.w3.org/2000/svg">
<path fill-rule="evenodd" clip-rule="evenodd" d="M6.55813 5C5.14531 5 4 6.14531 4 7.55813V16.8605C4 18.2733 5.14531 19.4186 6.55813 19.4186H6.79075V22.4419C6.79075 22.7166 6.952 22.9658 7.20263 23.0783C7.45325 23.1909 7.7465 23.1459 7.95187 22.9633L11.6093 19.7124C11.8221 19.5231 12.097 19.4186 12.3818 19.4186H21.4419C22.8546 19.4186 24 18.2733 24 16.8605V7.55813C24 6.14531 22.8546 5 21.4419 5H6.55813ZM7 9.5C7 9.22386 7.22386 9 7.5 9H20.5C20.7761 9 21 9.22386 21 9.5V9.7C21 9.97614 20.7761 10.2 20.5 10.2H7.5C7.22386 10.2 7 9.97614 7 9.7V9.5ZM7.5 13C7.22386 13 7 13.2239 7 13.5V13.7C7 13.9761 7.22386 14.2 7.5 14.2H17.5C17.7761 14.2 18 13.9761 18 13.7V13.5C18 13.2239 17.7761 13 17.5 13H7.5Z" fill="#B6ADC2"/>
</svg>
