<svg width="24" height="24" viewBox="0 0 24 24" fill="none" xmlns="http://www.w3.org/2000/svg">
<path d="M13.4468 21.153L13.4468 21.1531C13.8062 21.6659 14.5951 21.5626 14.8092 20.9746L14.8092 20.9746L16.2905 16.9015H21.3721C21.7999 16.9015 22.147 16.5544 22.147 16.1266C22.147 15.6988 21.7999 15.3517 21.3721 15.3517H15.748C15.4227 15.3517 15.1313 15.5547 15.0197 15.8616L15.0197 15.8616L13.8621 19.0451L13.2579 18.1819C13.2579 18.1818 13.2578 18.1817 13.2577 18.1817C13.0141 17.8313 12.5293 17.7446 12.1789 17.9909C11.8272 18.2359 11.742 18.7194 11.9883 19.0697C11.9884 19.0698 11.9884 19.0699 11.9885 19.0699L13.4468 21.153Z" fill="#9689A8" stroke="#9689A8" stroke-width="0.3"/>
<path d="M17.6229 23.0504H19.7063C20.0789 23.0504 20.3812 22.7481 20.3812 22.3755C20.3812 22.003 20.0789 21.7006 19.7063 21.7006H18.2978V21.3344C18.2978 21.2471 18.3692 21.1757 18.4565 21.1757H18.8727C19.7052 21.1757 20.3812 20.4984 20.3812 19.6672V19.4585C20.3812 18.626 19.7039 17.95 18.8727 17.95H17.6229C17.2504 17.95 16.948 18.2523 16.948 18.6249C16.948 18.9974 17.2504 19.2998 17.6229 19.2998H18.8727C18.9601 19.2998 19.0314 19.3711 19.0314 19.4585V19.6672C19.0314 19.7546 18.9601 19.8259 18.8727 19.8259H18.4565C17.624 19.8259 16.948 20.5032 16.948 21.3344V22.3755C16.948 22.7481 17.2504 23.0504 17.6229 23.0504Z" fill="#9689A8" stroke="#9689A8" stroke-width="0.1"/>
<path d="M21.1555 4.53711C16.7812 2.07878 13.823 2.97863 11.9983 4.40339C10.1736 2.97863 7.21537 2.07878 2.84111 4.53711C2.32495 4.82832 2 5.37822 2 5.98687V18.576C2 19.0921 2.23371 19.5758 2.64114 19.892C3.04982 20.2082 3.56598 20.3169 4.0659 20.192C6.7492 19.5171 9.03131 19.4833 10.856 20.1007C10.4611 19.5233 10.2299 18.9934 10.3648 18.251C9.60621 18.0848 8.79885 18.0011 7.94024 18.0011C6.62422 18.0011 5.19946 18.1923 3.66597 18.576L3.65847 5.98687C6.75794 4.24591 9.21628 4.22842 11.1659 5.89563V16.86C11.2159 16.8188 11.2572 16.785 11.3072 16.7513C11.7571 16.4351 12.2908 16.2926 12.8319 16.3426V5.89439C14.7816 4.22842 17.2399 4.24466 20.3306 5.98562L20.3394 13.8343H21.3717C21.5879 13.8343 21.7966 13.868 21.9966 13.918V5.98562C21.9966 5.38697 21.6717 4.82832 21.1555 4.53711Z" fill="#9689A8" stroke="#9689A8"/>
</svg>
