<svg width="24" height="24" viewBox="0 0 24 24" fill="none" xmlns="http://www.w3.org/2000/svg">
<path d="M19.6574 11.1289L17.7149 9.18641L15.7724 11.1289C15.436 11.4653 14.8574 11.2275 14.8574 10.7496V4.67894C14.8574 3.98894 15.4178 3.42859 16.1067 3.42859H19.321C20.011 3.42859 20.5713 3.98894 20.5713 4.67894V10.7507C20.5713 11.2317 19.9906 11.4621 19.6574 11.1289Z" fill="#9689A8"/>
<path d="M12.177 3.42859H10.391C9.70526 3.42859 9.14062 3.99323 9.14062 4.67894V19.322C9.14062 20.0077 9.70526 20.5724 10.391 20.5724H12.177C12.8627 20.5724 13.4274 20.0077 13.4274 19.322V4.67894C13.4263 3.99323 12.8627 3.42859 12.177 3.42859ZM11.9981 17.7138C11.9981 18.107 11.6767 18.4285 11.2835 18.4285C10.8903 18.4285 10.5688 18.107 10.5688 17.7138V6.28607C10.5688 5.89285 10.8903 5.57143 11.2835 5.57143C11.6767 5.57143 11.9981 5.89285 11.9981 6.28607V17.7138Z" fill="#9689A8"/>
<rect x="10.2852" y="4.28577" width="2.57143" height="15.4286" fill="#9689A8"/>
<path d="M3.42773 18.4286V19.3211C3.42773 20.0068 3.99237 20.5714 4.67808 20.5714H6.46414C7.14878 20.5714 7.71341 20.0068 7.71341 19.3211V18.4286H3.42773Z" fill="#9689A8"/>
<path d="M7.71341 17.0004V8.9647C7.71341 8.27899 7.14878 7.71436 6.46307 7.71436H4.67808C3.99237 7.71436 3.42773 8.27899 3.42773 8.9647V17.0004H7.71341Z" fill="#9689A8"/>
<path d="M14.8574 18.4286V19.3211C14.8574 20.0068 15.4221 20.5714 16.1078 20.5714H17.8928C18.5785 20.5714 19.1431 20.0068 19.1431 19.3211V18.4286H14.8574Z" fill="#9689A8"/>
<path d="M19.1431 12.4936V17.0011H14.8574V12.6372C15.0363 12.6875 15.2142 12.7154 15.3931 12.7154C15.9074 12.7154 16.4078 12.515 16.7785 12.1368L17.7138 11.2079L18.6492 12.1368C18.8002 12.2868 18.9642 12.4004 19.1431 12.4936Z" fill="#9689A8"/>
</svg>
