<svg width="25" height="24" viewBox="0 0 25 24" fill="none" xmlns="http://www.w3.org/2000/svg">
<path d="M19.232 2.95076C19.2335 2.44607 18.8042 2.05117 18.2933 2.05117H6.45058C5.06881 2.05117 3.9333 3.11902 3.93203 4.44962V4.44977L19.082 2.95033M19.232 2.95076L19.082 2.95033M19.232 2.95076V2.95033H19.082M19.232 2.95076V5.20005V5.35005H19.082H17.5034H17.3534V5.20005V3.85061M19.082 2.95033V5.05005V5.20005H18.932H17.6534H17.5034V5.05005V3.85061H17.3534M17.3534 3.85061V3.70061H6.45058C6.01476 3.70061 5.66067 4.03694 5.66067 4.45089C5.66067 4.69618 5.785 4.91422 5.977 5.05117M17.3534 3.85061L5.977 5.05117M6.45058 5.20117H5.93159C6.0812 5.2962 6.26016 5.35117 6.45058 5.35117V5.20117ZM6.45058 5.20117C6.27301 5.20117 6.10901 5.14534 5.977 5.05117M6.45058 5.20117V5.05117H5.977" fill="#29AFBD" stroke="#29AFBD" stroke-width="0.3"/>
<path d="M18.9532 5.84727H19.4015V20.6494H6.17366C5.55981 20.6494 4.92734 20.0888 4.92734 19.234V5.84727H6.17366H17.3561H18.9532Z" stroke="#42246E" stroke-width="2.3" stroke-linecap="round" stroke-linejoin="round"/>
<path d="M15.3415 16.6536C15.3415 17.2762 14.5747 17.5678 14.1593 17.1141L12.1639 14.9369L10.1686 17.1141C9.75315 17.5705 8.98633 17.2762 8.98633 16.6536V10.0689C8.98633 9.56753 9.39221 9.16016 9.8948 9.16016H14.4344C14.9356 9.16016 15.3429 9.56616 15.3429 10.0689V16.6536H15.3415Z" fill="#42246E"/>
</svg>
