<svg width="40" height="40" viewBox="0 0 40 40" fill="none" xmlns="http://www.w3.org/2000/svg">
<path d="M19.9997 22.2829C19.873 22.2829 19.7481 22.2589 19.6306 22.2109L11.9783 19.0691C11.6459 18.932 11.4292 18.6252 11.4292 18.2841C11.4292 17.9431 11.6441 17.6362 11.9783 17.4991L19.6306 14.3574C19.8657 14.2614 20.1356 14.2614 20.3707 14.3574L28.023 17.4991C28.3554 17.6362 28.5721 17.9431 28.5721 18.2841C28.5721 18.6252 28.3572 18.932 28.023 19.0691L20.3707 22.2109C20.2513 22.2589 20.1264 22.2829 19.9997 22.2829Z" fill="#42246E"/>
<path d="M21.1087 23.778C20.7525 23.9237 20.3815 23.9957 19.9995 23.9957C19.6176 23.9957 19.2466 23.9237 18.894 23.7797L13.877 21.7195V22.5062C13.877 23.2038 14.2681 23.8585 14.8943 24.2151C16.6591 25.2143 18.3284 25.7131 19.9977 25.7131C21.667 25.7131 23.3363 25.2126 25.1011 24.2151C25.7291 23.8585 26.1184 23.2038 26.1184 22.5062V21.7195L21.1087 23.778Z" fill="#42246E"/>
<path d="M21.4253 37.0837L21.4082 37.0851C20.4173 37.1667 19.4214 37.1627 18.4424 37.0756C17.6561 37.0049 17.0763 36.3087 17.1472 35.5246C17.218 34.7404 17.9103 34.1652 18.6982 34.2293C19.515 34.304 20.3473 34.3064 21.1738 34.2383C21.9597 34.1736 22.6593 34.7589 22.7241 35.5448C22.7888 36.3307 22.2112 37.019 21.4253 37.0837ZM25.2855 34.8737C24.9555 34.157 25.2683 33.3077 25.9851 32.9778C26.7371 32.632 27.4618 32.2154 28.1431 31.7422C28.7899 31.2933 29.6802 31.4522 30.1314 32.101C30.5824 32.7476 30.4214 33.6381 29.7727 34.0893C28.9551 34.6576 28.0825 35.1573 27.1814 35.5733C26.4479 35.909 25.6097 35.5738 25.2855 34.8737ZM12.6976 35.5126C11.8006 35.0898 10.9332 34.5828 10.1184 34.0092C9.47248 33.5549 9.31942 32.6624 9.77383 32.0186C10.2281 31.3727 11.1207 31.2197 11.7644 31.6741C12.4446 32.1534 13.1674 32.5755 13.9147 32.929C14.6283 33.2658 14.9328 34.118 14.5958 34.8295C14.2614 35.5472 13.4068 35.8476 12.6976 35.5126ZM32.0078 30.2392C31.3641 29.7848 31.211 28.8922 31.6675 28.2483C32.1469 27.5681 32.5711 26.8451 32.9246 26.0979C33.2636 25.3841 34.1136 25.0797 34.8274 25.4187C35.541 25.7556 35.8456 26.6077 35.5066 27.3215C35.0836 28.2164 34.5747 29.0861 33.9987 29.899C33.5461 30.5383 32.654 30.6978 32.0078 30.2392ZM7.21483 30.3953C6.72363 30.4357 6.22646 30.2208 5.92418 29.7877C5.35606 28.9723 4.8565 28.1018 4.43812 27.1988C4.10605 26.4822 4.41883 25.633 5.13329 25.3011C5.85219 24.971 6.69913 25.2818 7.03103 25.9962C7.37891 26.7481 7.79568 27.4749 8.26873 28.1541C8.90012 29.0589 8.3104 30.3051 7.21483 30.3953ZM35.5227 22.8695C34.7364 22.7988 34.1587 22.1024 34.2296 21.3182C34.3037 20.4951 34.3079 19.6584 34.2395 18.8276C34.1748 18.0417 34.7581 17.3185 35.544 17.2538C36.3299 17.1891 37.0159 17.7389 37.0806 18.5248L37.0863 18.5932C37.168 19.5862 37.1647 20.5906 37.0739 21.5764C37.003 22.3606 36.3092 22.9423 35.5227 22.8695ZM4.45922 22.7292C3.67331 22.7939 2.98375 22.2271 2.91903 21.4412C2.91903 21.4412 2.83753 19.4333 2.92497 18.4585C2.99585 17.6743 3.68315 17.091 4.47604 17.1633C5.26236 17.234 5.84199 17.928 5.77129 18.7144C5.69824 19.5245 5.69548 20.3525 5.76301 21.1726C5.82773 21.9585 5.24513 22.6644 4.45922 22.7292ZM32.9583 13.9749C32.6106 13.2252 32.1919 12.5007 31.7167 11.8217C31.2635 11.1753 31.4224 10.285 32.0689 9.83182C32.7131 9.37884 33.6077 9.53739 34.0588 10.184C34.6292 11.0013 35.133 11.8715 35.5511 12.7702C35.8831 13.4868 35.5725 14.3359 34.858 14.6678C34.1352 15.0025 33.2899 14.6851 32.9583 13.9749ZM5.16687 14.6123C4.45324 14.2754 4.14675 13.4256 4.4836 12.7119C4.90819 11.8105 5.41283 10.9411 5.98664 10.1284C6.44087 9.48254 7.33329 9.32735 7.97722 9.7839C8.62311 10.2381 8.77617 11.1307 8.32175 11.7745C7.84435 12.4524 7.42225 13.1752 7.06916 13.9267C6.72856 14.6471 5.87391 14.9475 5.16687 14.6123ZM28.2109 8.30903C27.533 7.83163 26.8082 7.41184 26.0588 7.05858C25.3454 6.72386 25.0367 5.87418 25.3734 5.15842C25.708 4.44283 26.5576 4.1342 27.2736 4.47301C28.1749 4.89547 29.0442 5.40011 29.8569 5.97392C30.5028 6.42815 30.6578 7.31844 30.2036 7.96432C29.747 8.60825 28.8568 8.76327 28.2109 8.30903ZM9.84507 7.9229C9.39405 7.2763 9.55295 6.38597 10.1995 5.93495C11.0149 5.36683 11.8853 4.86514 12.7883 4.44676C13.505 4.11682 14.3539 4.42533 14.6839 5.1421C15.0158 5.85655 14.7053 6.70777 13.9885 7.0377C13.2367 7.38558 12.5122 7.80431 11.833 8.27736C11.1886 8.72821 10.2959 8.56735 9.84507 7.9229ZM21.274 5.76907C20.464 5.69816 19.6424 5.69487 18.8287 5.76187C18.0428 5.82659 17.3282 5.24256 17.2635 4.45665C17.1988 3.67074 17.7571 2.98402 18.543 2.9193L18.5943 2.91508C19.5681 2.83488 20.5531 2.83763 21.5234 2.92328C22.3097 2.99399 22.8913 3.68573 22.8228 4.47187C22.7524 5.26245 22.0514 5.8362 21.274 5.76907Z" fill="#42246E"/>
</svg>
