<svg width="20" height="20" viewBox="0 0 20 20" fill="none" xmlns="http://www.w3.org/2000/svg">
<path d="M17.823 5.6493C17.6718 5.87221 13.9507 11.1639 9.30225 9.80242C6.40912 8.9545 4.41523 9.81596 3.52246 10.3576V2.09409C4.99062 1.94826 7.7758 1.95555 10.1292 3.54513C13.4822 5.80971 17.1968 4.86492 17.2325 4.85763C17.4484 4.79513 17.6859 4.87846 17.8154 5.05138C17.9449 5.23367 17.9525 5.46909 17.823 5.6493Z" fill="#9689A8"/>
<path d="M3.52359 2.08516V17.9161C3.52359 18.3111 3.19973 18.6349 2.80354 18.6349C2.40735 18.6349 2.0835 18.3111 2.0835 17.915V2.08516C2.08458 1.68904 2.40843 1.36523 2.80354 1.36523C3.19865 1.36523 3.52359 1.68904 3.52359 2.08516Z" fill="#9689A8"/>
</svg>
