<svg width="40" height="40" viewBox="0 0 40 40" fill="none" xmlns="http://www.w3.org/2000/svg">
<path d="M21.3501 37.0903L21.333 37.0916C20.3418 37.1689 19.3459 37.1606 18.3673 37.0693C17.5813 36.9952 17.0045 36.2965 17.0788 35.5127C17.153 34.7288 17.8478 34.1566 18.6354 34.2241C19.4518 34.3023 20.2841 34.3083 21.1109 34.2438C21.8971 34.1825 22.5942 34.7708 22.6555 35.5569C22.7169 36.3431 22.1363 37.0289 21.3501 37.0903ZM25.2198 34.8969C24.893 34.1788 25.2094 33.3309 25.9276 33.004C26.6811 32.6615 27.4076 32.2481 28.091 31.7778C28.7397 31.3317 29.6293 31.4944 30.0777 32.1451C30.5259 32.7936 30.361 33.6834 29.7104 34.1318C28.8904 34.6966 28.0156 35.1926 27.1128 35.6047C26.3778 35.9372 25.5411 35.5984 25.2198 34.8969ZM12.6293 35.4815C11.7341 35.0548 10.8689 34.5441 10.0566 33.967C9.41266 33.5099 9.26346 32.6167 9.72065 31.9749C10.1777 31.331 11.0709 31.1818 11.7127 31.639C12.3908 32.1213 13.1118 32.5465 13.8575 32.9031C14.5697 33.2431 14.8705 34.0965 14.5304 34.8066C14.193 35.5228 13.337 35.8196 12.6293 35.4815ZM31.9621 30.2915C31.3203 29.8343 31.1711 28.9411 31.6304 28.2991C32.1127 27.621 32.5401 26.8999 32.8967 26.1541C33.2388 25.4418 34.0901 25.1411 34.8025 25.4832C35.5146 25.8231 35.8155 26.6766 35.4734 27.3889C35.0466 28.282 34.5339 29.1495 33.9545 29.9598C33.4991 30.5972 32.6063 30.7528 31.9621 30.2915ZM7.16867 30.3406C6.67731 30.3789 6.18107 30.1618 5.88066 29.7274C5.31606 28.9096 4.82026 28.0369 4.40578 27.1321C4.0768 26.4141 4.39325 25.5662 5.10913 25.2374C5.82945 24.9104 6.67504 25.2249 7.00386 25.9408C7.34849 26.6941 7.76212 27.4227 8.23223 28.1039C8.85971 29.0115 8.26463 30.2551 7.16867 30.3406ZM35.5087 22.937C34.7227 22.8629 34.1481 22.164 34.2223 21.3802C34.3 20.5574 34.3078 19.7206 34.243 18.8896C34.1817 18.1034 34.7681 17.3828 35.5543 17.3214C36.3405 17.2601 37.0241 17.8129 37.0854 18.5991L37.0908 18.6674C37.1683 19.6609 37.1606 20.6652 37.0655 21.6506C36.9913 22.4344 36.2949 23.0132 35.5087 22.937ZM4.44617 22.6626C3.65998 22.7239 2.97288 22.1542 2.91155 21.368C2.91155 21.368 2.83872 19.3598 2.93036 18.3854C3.00463 17.6015 3.69444 17.0211 4.48701 17.0969C5.27301 17.171 5.84964 17.8675 5.77555 18.6535C5.69901 19.4633 5.69267 20.2913 5.75666 21.1117C5.81799 21.8979 5.23235 22.6013 4.44617 22.6626ZM32.9828 14.0315C32.6383 13.2803 32.2227 12.554 31.7505 11.8729C31.3001 11.2245 31.4628 10.3349 32.1112 9.88454C32.7574 9.43435 33.6513 9.59675 34.0996 10.2453C34.6665 11.0651 35.1665 11.9374 35.5807 12.8379C35.9097 13.556 35.5954 14.4037 34.8795 14.7325C34.1552 15.0641 33.3113 14.7431 32.9828 14.0315ZM5.18884 14.5489C4.47667 14.2089 4.17384 13.3578 4.51377 12.6456C4.94225 11.746 5.45064 10.8788 6.02795 10.0686C6.48497 9.42467 7.37804 9.27333 8.02 9.73266C8.66392 10.1897 8.81312 11.0829 8.35594 11.7247C7.87561 12.4005 7.4504 13.1215 7.09407 13.8715C6.75037 14.5904 5.89442 14.8871 5.18884 14.5489ZM28.2598 8.34511C27.584 7.86479 26.861 7.44188 26.1132 7.08538C25.4012 6.74759 25.0962 5.89659 25.436 5.18229C25.7736 4.46815 26.6246 4.16319 27.3391 4.50509C28.2386 4.93143 29.1057 5.43981 29.9159 6.01712C30.5598 6.47414 30.711 7.36509 30.254 8.00901C29.7947 8.65096 28.9037 8.80213 28.2598 8.34511ZM9.89586 7.87973C9.44764 7.2312 9.61037 6.34156 10.2589 5.89334C11.0768 5.32874 11.9493 4.8308 12.854 4.41632C13.5722 4.08948 14.4198 4.40165 14.7466 5.11984C15.0754 5.83572 14.7613 6.68558 14.0431 7.01243C13.2898 7.35706 12.5635 7.77266 11.8823 8.24277C11.2359 8.69083 10.3439 8.52613 9.89586 7.87973ZM21.334 5.77524C20.5243 5.70084 19.7027 5.694 18.8888 5.75749C18.1026 5.81882 17.3905 5.23171 17.3292 4.44553C17.2678 3.65934 17.8292 2.97504 18.6153 2.91372L18.6666 2.90972C19.6408 2.83372 20.6258 2.84072 21.5957 2.93056C22.3817 3.00465 22.9603 3.6989 22.8883 4.48473C22.8146 5.27501 22.1111 5.84573 21.334 5.77524Z" fill="#42246E"/>
<path fill-rule="evenodd" clip-rule="evenodd" d="M21.0062 23.3707V22.2393C22.0438 21.8683 22.9155 20.9629 23.451 19.9054C25.7841 19.0711 27.039 17.4237 27.039 15.0799V14.6051C27.039 14.2128 26.7011 13.8944 26.2849 13.8944H24.0226V13.6585C24.0226 12.7431 23.2323 11.9998 22.2625 11.9998H17.7379C16.7681 11.9998 15.9778 12.7431 15.9778 13.6585V13.8959H13.7155C13.2993 13.8959 12.9614 14.2142 12.9614 14.6065V15.0799C12.9614 17.4237 14.2162 19.0725 16.5494 19.9054C17.0848 20.9629 17.9566 21.8683 18.9942 22.2393V23.3707V27.2504H21.0062V23.3707ZM24.0037 17.8073C24.9524 17.1763 25.4652 16.2666 25.524 15.0769V15.0755H24.0218V17.4449C24.0218 17.5643 24.0143 17.6851 24.0037 17.8073ZM15.9771 15.0769H14.4749C14.5337 16.2666 15.0465 17.1763 15.9952 17.8088C15.9846 17.6865 15.9771 17.5657 15.9771 17.4463V15.0769Z" fill="#42246E"/>
<rect x="14.5005" y="25.9998" width="11" height="2" rx="0.7" fill="#42246E"/>
<rect x="15.4165" y="24.6667" width="9.16665" height="1.83333" rx="0.7" fill="#42246E"/>
</svg>
