<svg width="24" height="24" viewBox="0 0 24 24" fill="none" xmlns="http://www.w3.org/2000/svg">
<path d="M6.16816 5.12451C5.9765 5.12451 5.82129 5.27972 5.82129 5.47139V6.16618H6.51608V5.47139C6.51504 5.27972 6.35983 5.12451 6.16816 5.12451Z" fill="#9689A8"/>
<path d="M19.5005 4.49976L4.50049 19.4998" stroke="#534667" stroke-width="2" stroke-linecap="round" stroke-linejoin="round"/>
<path d="M8.42445 2.00024H3.90986C2.85674 2.00024 2.00049 2.85649 2.00049 3.90962V8.42316C2.00049 9.47733 2.85674 10.3336 3.90986 10.3336H8.42341C9.47757 10.3336 10.3338 9.47733 10.3338 8.4242V3.90962C10.3338 2.85649 9.47757 2.00024 8.42445 2.00024ZM7.5557 7.72941C7.5557 8.01691 7.32236 8.25024 7.03486 8.25024C6.74736 8.25024 6.51403 8.01691 6.51403 7.72941V7.20858H5.81924V7.72941C5.81924 8.01691 5.58591 8.25024 5.29841 8.25024C5.01091 8.25024 4.77757 8.01691 4.77757 7.72941V5.47212C4.77861 4.70649 5.40153 4.08358 6.16715 4.08358C6.93278 4.08358 7.5557 4.70649 7.5557 5.47212V7.72941Z" fill="#534667"/>
<path d="M17.8343 18.128C17.9874 17.9509 18.0749 17.7405 18.1238 17.4863H17.5447C17.5936 17.7405 17.6811 17.9509 17.8343 18.128Z" fill="#9689A8"/>
<path d="M20.0919 13.6667H15.5784C14.5242 13.6667 13.668 14.523 13.668 15.5761V20.0897C13.668 21.1438 14.5242 22.0001 15.5773 22.0001H20.0909C21.1451 22.0001 22.0013 21.1438 22.0013 20.0907V15.5772C22.0013 14.523 21.1451 13.6667 20.0919 13.6667ZM19.5148 18.8886C19.7951 18.9542 19.969 19.2334 19.9044 19.5136C19.8482 19.7542 19.6346 19.9167 19.3971 19.9167C19.3586 19.9167 19.318 19.9126 19.2784 19.9032C18.7159 19.772 18.2388 19.6147 17.8336 19.4053C17.4294 19.6147 16.9513 19.772 16.3888 19.9032C16.3503 19.9126 16.3107 19.9167 16.2721 19.9167C16.0357 19.9167 15.8211 19.7542 15.7648 19.5136C15.6992 19.2334 15.8732 18.9532 16.1544 18.8886C16.4617 18.8167 16.7096 18.7417 16.9326 18.6636C16.7117 18.3553 16.568 17.9667 16.4982 17.4855H16.2721C15.9846 17.4855 15.7513 17.2522 15.7513 16.9647C15.7513 16.6772 15.9846 16.4438 16.2721 16.4438H17.3138V16.2709C17.3138 15.9834 17.5471 15.7501 17.8346 15.7501C18.1221 15.7501 18.3555 15.9834 18.3555 16.2709V16.4449H19.3971C19.6846 16.4449 19.918 16.6782 19.918 16.9657C19.918 17.2532 19.6846 17.4865 19.3971 17.4865H19.1711C19.1013 17.9667 18.9576 18.3553 18.7367 18.6647C18.9596 18.7417 19.2076 18.8167 19.5148 18.8886Z" fill="#534667"/>
</svg>
