<svg width="24" height="24" viewBox="0 0 24 24" fill="none" xmlns="http://www.w3.org/2000/svg">
<path d="M11.875 1C7.53325 1 4 4.55775 4 8.93187C4 15.147 11.1348 21.5642 11.4384 21.8337C11.5635 21.9449 11.7193 22 11.875 22C12.0308 22 12.1865 21.9449 12.3116 21.8346C12.6152 21.5643 19.75 15.147 19.75 8.93187C19.75 4.55775 16.2168 1 11.875 1ZM11.875 13.25C9.46263 13.25 7.5 11.2874 7.5 8.875C7.5 6.46263 9.46263 4.5 11.875 4.5C14.2874 4.5 16.25 6.46263 16.25 8.875C16.25 11.2874 14.2874 13.25 11.875 13.25Z" fill="#29AFBD"/>
</svg>
