<svg width="54" height="60" viewBox="0 0 54 60" fill="none" xmlns="http://www.w3.org/2000/svg">
<path d="M0 22.585V11.461C0.223158 11.3995 0.446316 11.2841 0.670326 11.2841C4.64373 11.2731 8.61714 11.2841 12.5948 11.2731C14.421 11.268 16.1934 11.5487 17.8484 12.313C22.5279 14.4746 25.2058 18.1059 25.5235 23.2162C25.722 26.406 25.5746 29.6168 25.5857 32.8174C25.5796 33.0713 25.597 33.3252 25.6376 33.5759C25.7014 33.8959 25.8758 34.1839 26.1308 34.3904C26.3859 34.597 26.7057 34.7091 27.0353 34.7077C27.3645 34.6984 27.6798 34.5741 27.9253 34.357C28.1708 34.1398 28.3307 33.8437 28.3769 33.5211C28.4074 33.2844 28.4205 33.0459 28.416 32.8073C28.416 25.8144 28.416 18.8217 28.416 11.8293V11.2925C28.571 11.2841 28.6554 11.2756 28.7388 11.2756C32.9124 11.2756 37.086 11.247 41.2595 11.2891C47.3283 11.3506 52.3016 15.3233 53.6951 21.1642C53.8135 21.6614 53.8995 22.1662 54 22.6676V36.4058C53.7624 36.4673 53.5256 36.5828 53.2879 36.5828C48.8021 36.5934 44.3162 36.5934 39.8303 36.5828C39.4956 36.5828 39.3423 36.667 39.2341 37.0041C37.2759 43.3162 30.812 47.1084 24.3183 45.6598C19.5033 44.5845 16.3306 41.6147 14.7574 36.9881C14.6628 36.7083 14.5658 36.5667 14.2387 36.5785C13.5292 36.6047 12.8188 36.5844 12.1093 36.5895C11.9582 36.6029 11.808 36.6254 11.6596 36.6569C12.0488 37.7103 12.3546 38.7208 12.7847 39.6764C15.6722 46.0761 22.8976 49.8389 29.7856 48.5065C34.9924 47.4952 38.7588 44.5853 41.1139 39.8913C41.3081 39.5045 41.533 39.3671 41.9605 39.3688C45.0549 39.384 48.1493 39.3772 51.2446 39.3772C51.742 39.3772 52.2386 39.3663 52.7352 39.3823C53.1253 39.3958 53.2641 39.5913 53.161 39.9671C53.0162 40.4947 52.8706 41.0231 52.6968 41.5414C48.6979 53.4601 37.3824 60.8971 24.722 59.9128C20.3576 59.5757 16.2991 58.2594 12.6272 55.909C5.60649 51.4162 1.47665 45.0668 0.237638 36.8609C0.160129 36.3426 0.0792126 35.8243 0 35.3102V25.5346C0.192495 25.4689 0.383287 25.3576 0.579189 25.3458C1.0451 25.3172 1.51611 25.3365 1.98287 25.3365C5.90091 25.3365 9.81129 25.3298 13.7259 25.3458C14.1348 25.3458 14.237 25.2152 14.2089 24.8402C14.1305 23.6047 13.2515 22.7561 11.9943 22.7544C8.22193 22.7544 4.44953 22.7544 0.67714 22.746C0.450575 22.7409 0.225713 22.6373 0 22.585ZM41.2144 25.7697C41.7101 25.7697 42.2058 25.7697 42.7007 25.7697C42.9562 25.7697 43.0985 25.6669 43.0942 25.3955C43.0874 24.9194 43.1112 24.4416 43.0831 23.9671C43.0176 22.8648 42.1615 22.0794 41.0432 22.071C40.6173 22.071 40.1915 22.0828 39.7656 22.071C39.453 22.0583 39.3354 22.1822 39.3397 22.4923C39.3494 23.4446 39.3494 24.3969 39.3397 25.3492C39.3397 25.6576 39.4649 25.7823 39.7656 25.7765C40.2519 25.7613 40.7332 25.7672 41.2144 25.7672V25.7697Z" fill="#29AFBD"/>
<path d="M36.54 0C36.6788 0.049721 36.8159 0.109555 36.959 0.149163C39.1736 0.75677 40.5142 2.81134 40.1957 5.12126C39.9112 7.19943 37.9896 8.83348 35.7981 8.8419C33.4575 8.85117 31.1135 8.8419 28.7763 8.8419H28.4458V5.66903H31.3826C31.3826 4.94176 31.2736 4.25156 31.4031 3.60856C31.7838 1.70737 32.9839 0.530919 34.8969 0.0792165C34.9641 0.0581731 35.0293 0.0316774 35.092 0L36.54 0ZM35.7828 5.65555C36.0295 5.65272 36.2698 5.57789 36.4737 5.44045C36.6776 5.30301 36.8359 5.10907 36.9289 4.88295C37.0218 4.65684 37.0452 4.4086 36.9961 4.16938C36.947 3.93016 36.8277 3.7106 36.653 3.53823C36.4783 3.36586 36.2561 3.24835 36.0142 3.20044C35.7722 3.15253 35.5214 3.17634 35.2931 3.2689C35.0649 3.36146 34.8693 3.51865 34.7309 3.72074C34.5925 3.92284 34.5176 4.16085 34.5154 4.40494C34.5156 4.73641 34.6487 5.05425 34.8855 5.28871C35.1223 5.52317 35.4435 5.6551 35.7785 5.65555H35.7828Z" fill="#F7A506"/>
<path d="M20.9781 0.252325C22.3782 0.246276 23.7234 0.790618 24.718 1.76567C25.7126 2.74072 26.2751 4.06666 26.2819 5.45196C26.3015 8.32229 23.9243 10.6904 21.0172 10.6946C20.3075 10.7238 19.5991 10.6111 18.9344 10.3632C18.2698 10.1152 17.6625 9.73714 17.1489 9.25156C16.6354 8.76599 16.2261 8.1829 15.9457 7.53718C15.6652 6.89146 15.5193 6.19639 15.5166 5.49358C15.514 4.79076 15.6547 4.09464 15.9303 3.44688C16.2059 2.79912 16.6108 2.21304 17.1207 1.72371C17.6306 1.23437 18.235 0.851848 18.8978 0.599027C19.5606 0.346207 20.2681 0.228287 20.9781 0.252325Z" fill="#F7A506"/>
</svg>
