<svg width="24" height="24" viewBox="0 0 24 24" fill="none" xmlns="http://www.w3.org/2000/svg">
<path fill-rule="evenodd" clip-rule="evenodd" d="M4.56146 18.6677H2.48474C1.66574 18.6677 1 19.3474 1 20.1885C1 21.0297 1.66574 21.7071 2.48474 21.7071H4.56146H18.4386H20.5154C21.3344 21.7071 22.0001 21.0297 22.0001 20.1885C22.0001 19.3474 21.3344 18.6677 20.5154 18.6677H18.4386H4.56146Z" fill="#29AFBD"/>
<path fill-rule="evenodd" clip-rule="evenodd" d="M4.56146 11.5757H2.48474C1.66574 11.5757 1 12.2554 1 13.0965C1 13.9376 1.66574 14.6151 2.48474 14.6151H4.56146H18.4386H20.5154C21.3344 14.6151 22.0001 13.9376 22.0001 13.0965C22.0001 12.2554 21.3344 11.5757 20.5154 11.5757H18.4386H4.56146Z" fill="#29AFBD"/>
<path fill-rule="evenodd" clip-rule="evenodd" d="M4.56146 4.48389H2.48474C1.66574 4.48389 1 5.16358 1 6.0047C1 6.84582 1.66574 7.52328 2.48474 7.52328H4.56146H18.4386H20.5154C21.3344 7.52328 22.0001 6.84582 22.0001 6.0047C22.0001 5.16358 21.3344 4.48389 20.5154 4.48389H18.4386H4.56146Z" fill="#29AFBD"/>
</svg>
