<svg width="24" height="24" viewBox="0 0 24 24" fill="none" xmlns="http://www.w3.org/2000/svg">
<path d="M5.49816 18.9626C6.25131 18.9626 6.86186 18.3349 6.86186 17.5606C6.86186 16.7864 6.25131 16.1587 5.49816 16.1587C4.74501 16.1587 4.13446 16.7864 4.13446 17.5606C4.13446 18.3349 4.74501 18.9626 5.49816 18.9626Z" fill="#534667"/>
<path d="M6.75017 19.6636H4.24983C3.56048 19.6636 3 20.2398 3 20.9485V21.6494C3 21.8429 3.15273 21.9999 3.34092 21.9999H7.65908C7.84727 21.9999 8 21.8429 8 21.6494V20.9485C8 20.2398 7.43952 19.6636 6.75017 19.6636Z" fill="#534667"/>
<path d="M11.9966 18.9626C12.7497 18.9626 13.3603 18.3349 13.3603 17.5606C13.3603 16.7864 12.7497 16.1587 11.9966 16.1587C11.2434 16.1587 10.6329 16.7864 10.6329 17.5606C10.6329 18.3349 11.2434 18.9626 11.9966 18.9626Z" fill="#534667"/>
<path d="M13.2486 19.6636H10.7482C10.0589 19.6636 9.49841 20.2398 9.49841 20.9485V21.6494C9.49841 21.8429 9.65115 21.9999 9.83934 21.9999H14.1575C14.3457 21.9999 14.4984 21.8429 14.4984 21.6494V20.9485C14.4984 20.2398 13.9379 19.6636 13.2486 19.6636Z" fill="#534667"/>
<path d="M18.4998 18.9626C19.253 18.9626 19.8635 18.3349 19.8635 17.5606C19.8635 16.7864 19.253 16.1587 18.4998 16.1587C17.7467 16.1587 17.1361 16.7864 17.1361 17.5606C17.1361 18.3349 17.7467 18.9626 18.4998 18.9626Z" fill="#534667"/>
<path d="M19.7518 19.6636H17.2515C16.5621 19.6636 16.0016 20.2398 16.0016 20.9485V21.6494C16.0016 21.8429 16.1544 21.9999 16.3426 21.9999H20.6607C20.8489 21.9999 21.0016 21.8429 21.0016 21.6494V20.9485C21.0016 20.2398 20.4412 19.6636 19.7518 19.6636Z" fill="#534667"/>
<path d="M11.4023 3.44903V2.3C11.4023 2.13431 11.5367 2 11.7023 2H12.274C12.4397 2 12.574 2.13431 12.574 2.3V3.44903H11.4023Z" fill="#534667"/>
<path fill-rule="evenodd" clip-rule="evenodd" d="M5.68047 3.44897C5.29387 3.44897 4.98047 3.76237 4.98047 4.14897V11.0918C4.98047 11.4784 5.29387 11.7918 5.68047 11.7918H18.3144C18.701 11.7918 19.0144 11.4784 19.0144 11.0918V4.14897C19.0144 3.76238 18.701 3.44897 18.3144 3.44897H5.68047ZM11.7915 6.4824C11.6592 6.4824 11.5383 6.55695 11.4788 6.67509L10.747 8.1298L10.0883 7.1137C9.98319 6.95149 9.76647 6.90523 9.60426 7.01037C9.44206 7.11551 9.3958 7.33224 9.50094 7.49444L10.4916 9.02277C10.5598 9.12801 10.6791 9.18871 10.8043 9.18188C10.9296 9.17505 11.0416 9.10174 11.0979 8.9897L12.0072 7.1824H14.7946C14.9879 7.1824 15.1446 7.0257 15.1446 6.8324C15.1446 6.6391 14.9879 6.4824 14.7946 6.4824H11.7915Z" fill="#534667"/>
<path d="M8.02867 11.7777L6.68473 11.779C6.51894 11.7791 6.38446 11.6447 6.38446 11.479V11.1054C6.38446 10.9398 6.51878 10.8054 6.68446 10.8054H17.6123V11.4789C17.6123 11.6447 17.4778 11.7791 17.3121 11.7789L16.002 11.7777L16.6876 13.1529C16.7598 13.2976 16.7043 13.4734 16.5621 13.5505L16.0554 13.8251C15.907 13.9055 15.7214 13.8477 15.645 13.6971L14.6707 11.7777H12.6085L12.6129 13.7154C12.6133 13.8814 12.4788 14.0161 12.3129 14.0161H11.7368C11.5711 14.0161 11.4368 13.8818 11.4368 13.7161V11.7777H9.36L8.38141 13.6978C8.30483 13.8481 8.11947 13.9057 7.97119 13.8253L7.46462 13.5508C7.32223 13.4736 7.26679 13.2974 7.33938 13.1526L8.02867 11.7777Z" fill="#534667"/>
</svg>
