<svg width="24" height="24" viewBox="0 0 24 24" fill="none" xmlns="http://www.w3.org/2000/svg">
<path d="M11.9965 18.9626C12.7497 18.9626 13.3602 18.3349 13.3602 17.5606C13.3602 16.7864 12.7497 16.1587 11.9965 16.1587C11.2434 16.1587 10.6328 16.7864 10.6328 17.5606C10.6328 18.3349 11.2434 18.9626 11.9965 18.9626Z" fill="#534667"/>
<path d="M13.2486 19.6636H10.7482C10.0589 19.6636 9.49841 20.2398 9.49841 20.9485V21.6494C9.49841 21.8429 9.65115 21.9999 9.83934 21.9999H14.1575C14.3457 21.9999 14.4984 21.8429 14.4984 21.6494V20.9485C14.4984 20.2398 13.9379 19.6636 13.2486 19.6636Z" fill="#534667"/>
<path d="M11.4023 3.44903V2.3C11.4023 2.13431 11.5367 2 11.7023 2H12.274C12.4397 2 12.574 2.13431 12.574 2.3V3.44903H11.4023Z" fill="#534667"/>
<path fill-rule="evenodd" clip-rule="evenodd" d="M5.68047 3.44922C5.29387 3.44922 4.98047 3.76262 4.98047 4.14922V11.092C4.98047 11.4786 5.29387 11.792 5.68047 11.792H18.3144C18.701 11.792 19.0144 11.4786 19.0144 11.092V4.14922C19.0144 3.76262 18.701 3.44922 18.3144 3.44922H5.68047ZM11.7914 6.48264C11.6591 6.48264 11.5382 6.55719 11.4787 6.67534L10.7469 8.13005L10.0882 7.11394C9.98309 6.95174 9.76637 6.90548 9.60416 7.01062C9.44196 7.11576 9.39569 7.33248 9.50083 7.49469L10.4915 9.02301C10.5597 9.12825 10.679 9.18895 10.8042 9.18212C10.9295 9.17529 11.0415 9.10198 11.0978 8.98994L12.0071 7.18264H14.7945C14.9878 7.18264 15.1445 7.02594 15.1445 6.83264C15.1445 6.63934 14.9878 6.48264 14.7945 6.48264H11.7914Z" fill="#534667"/>
<path d="M8.02861 11.7777L6.68467 11.779C6.51888 11.7791 6.3844 11.6447 6.3844 11.479V11.1054C6.3844 10.9398 6.51871 10.8054 6.6844 10.8054H17.6123V11.4789C17.6123 11.6447 17.4778 11.7791 17.312 11.7789L16.0019 11.7777L16.6876 13.1529C16.7597 13.2976 16.7042 13.4734 16.562 13.5505L16.0554 13.8251C15.9069 13.9055 15.7213 13.8477 15.6449 13.6971L14.6706 11.7777H12.6084L12.6128 13.7154C12.6132 13.8814 12.4788 14.0161 12.3128 14.0161H11.7368C11.5711 14.0161 11.4368 13.8818 11.4368 13.7161V11.7777H9.35994L8.38135 13.6978C8.30477 13.8481 8.11941 13.9057 7.97113 13.8253L7.46456 13.5508C7.32217 13.4736 7.26673 13.2974 7.33932 13.1526L8.02861 11.7777Z" fill="#534667"/>
</svg>
