<svg width="101" height="100" viewBox="0 0 101 100" fill="none" xmlns="http://www.w3.org/2000/svg">
<path d="M50.5829 8.57129C73.4473 8.57129 92.0114 27.1354 92.0114 49.9999C92.0114 72.8643 73.4473 91.4284 50.5829 91.4284C27.7184 91.4284 9.1543 72.8643 9.1543 49.9999C9.1543 27.1354 27.7184 8.57129 50.5829 8.57129Z" fill="#29AFBD"/>
<path d="M50.582 0C78.177 0 100.582 22.405 100.582 50C100.582 77.595 78.177 100 50.582 100C22.987 100 0.582031 77.595 0.582031 50C0.582031 22.405 22.987 0 50.582 0Z" fill="#29AFBD" fill-opacity="0.5"/>
<path d="M50.582 6C74.8633 6 94.582 25.7187 94.582 50C94.582 74.2813 74.8633 94 50.582 94C26.3007 94 6.58203 74.2813 6.58203 50C6.58203 25.7187 26.3007 6 50.582 6Z" stroke="#29AFBD" stroke-opacity="0.5" stroke-width="12"/>
<path d="M29.1543 55.5609C33.853 59.1993 42.2668 65.7147 42.2668 65.7147C42.2668 65.7147 48.2328 55.982 55.986 48.165C63.7061 40.3818 70.195 36.3179 73.44 34.2861" stroke="white" stroke-width="6" stroke-linecap="round"/>
</svg>
