<svg width="101" height="100" viewBox="0 0 101 100" fill="none" xmlns="http://www.w3.org/2000/svg">
<path d="M50.582 0C78.177 0 100.582 22.405 100.582 50C100.582 77.595 78.177 100 50.582 100C22.987 100 0.582031 77.595 0.582031 50C0.582031 22.405 22.987 0 50.582 0Z" fill="#FF005C" fill-opacity="0.5"/>
<path d="M50.582 6C74.8633 6 94.582 25.7187 94.582 50C94.582 74.2813 74.8633 94 50.582 94C26.3007 94 6.58203 74.2813 6.58203 50C6.58203 25.7187 26.3007 6 50.582 6Z" stroke="#FF005C" stroke-opacity="0.5" stroke-width="12"/>
<path d="M50.5809 8.57227C73.4453 8.57227 92.0095 27.1364 92.0095 50.0008C92.0095 72.8653 73.4453 91.4294 50.5809 91.4294C27.7165 91.4294 9.15234 72.8653 9.15234 50.0008C9.15234 27.1364 27.7165 8.57227 50.5809 8.57227Z" fill="#FF005C"/>
<path d="M68.582 67.9997C68.582 67.9997 44.3896 43.8073 32.582 32" stroke="white" stroke-width="6" stroke-linecap="round" stroke-linejoin="round"/>
<path d="M68.582 32C68.582 32 44.3896 56.1925 32.582 68" stroke="white" stroke-width="6" stroke-linecap="round" stroke-linejoin="round"/>
</svg>
