<svg width="24" height="24" viewBox="0 0 24 24" fill="none" xmlns="http://www.w3.org/2000/svg">
<path d="M11.9961 19.0214C12.7493 19.0214 13.3598 18.3938 13.3598 17.6195C13.3598 16.8452 12.7493 16.2175 11.9961 16.2175C11.243 16.2175 10.6324 16.8452 10.6324 17.6195C10.6324 18.3938 11.243 19.0214 11.9961 19.0214Z" fill="#534667"/>
<path d="M13.2482 19.7224H10.7479C10.0585 19.7224 9.49805 20.2986 9.49805 21.0073V21.7083C9.49805 21.9017 9.65078 22.0588 9.83897 22.0588H14.1571C14.3453 22.0588 14.498 21.9017 14.498 21.7083V21.0073C14.498 20.2986 13.9376 19.7224 13.2482 19.7224Z" fill="#534667"/>
<rect x="3" y="12.6492" width="18.002" height="1.39716" rx="0.4" fill="#534667"/>
<path fill-rule="evenodd" clip-rule="evenodd" d="M4.54688 4.54141C4.54688 4.21004 4.8155 3.94141 5.14688 3.94141H18.8531C19.1845 3.94141 19.4531 4.21004 19.4531 4.54141V12.8397C19.4531 13.1711 19.1845 13.4397 18.8531 13.4397H5.14688C4.8155 13.4397 4.54688 13.1711 4.54688 12.8397V4.54141ZM11.9962 8.60302C12.5611 8.60302 13.019 8.13227 13.019 7.55156C13.019 6.97085 12.5611 6.50009 11.9962 6.50009C11.4313 6.50009 10.9734 6.97085 10.9734 7.55156C10.9734 8.13227 11.4313 8.60302 11.9962 8.60302ZM11.0624 9.12869H12.9376C13.4546 9.12869 13.875 9.56084 13.875 10.0924V10.6181C13.875 10.7632 13.7604 10.881 13.6193 10.881H10.3807C10.2396 10.881 10.125 10.7632 10.125 10.6181V10.0924C10.125 9.56084 10.5454 9.12869 11.0624 9.12869Z" fill="#534667"/>
</svg>
