<svg width="21" height="20" viewBox="0 0 21 20" fill="none" xmlns="http://www.w3.org/2000/svg">
<path d="M14.5586 4.11038C14.5586 5.59472 13.4062 6.55178 11.6289 6.55178H10.2227C10.0567 6.35647 9.89059 6.16113 9.72461 5.98535L9.86133 5.56543C10.5058 5.5361 11.6289 5.30172 11.6289 4.11035C11.6289 3.83688 11.8437 3.62207 12.1172 3.62207C12.3907 3.62207 12.6055 3.83688 12.6055 4.11035C12.6055 4.66699 12.4395 5.1455 12.1465 5.5361C12.7812 5.43851 13.582 5.12597 13.582 4.11038C13.582 3.83691 13.7968 3.6221 14.0703 3.6221C14.3438 3.6221 14.5586 3.83691 14.5586 4.11038Z" fill="#9689A8"/>
<path d="M12.6387 17.3584C13.178 17.3584 13.6152 16.484 13.6152 15.4053C13.6152 14.3266 13.178 13.4521 12.6387 13.4521C12.0993 13.4521 11.6621 14.3266 11.6621 15.4053C11.6621 16.484 12.0993 17.3584 12.6387 17.3584Z" fill="#9689A8"/>
<path d="M10.6855 15.4062C10.6855 13.7635 11.5434 12.4766 12.6387 12.4766H7.26758C6.99769 12.4766 6.7793 12.695 6.7793 12.9648V17.8477C6.7793 18.1175 6.99769 18.3359 7.26758 18.3359H12.6387C11.5434 18.3359 10.6855 17.049 10.6855 15.4062ZM9.2207 15.8945C8.95104 15.8945 8.73242 15.6759 8.73242 15.4062C8.73242 15.1365 8.95104 14.918 9.2207 14.918C9.49036 14.918 9.70898 15.1365 9.70898 15.4062C9.70898 15.6759 9.49036 15.8945 9.2207 15.8945Z" fill="#9689A8"/>
<path d="M18.0098 12.4756H12.6387C13.734 12.4756 14.5918 13.7626 14.5918 15.4053C14.5918 17.048 13.734 18.335 12.6387 18.335H18.0098C18.2797 18.335 18.498 18.1166 18.498 17.8467V12.9639C18.498 12.694 18.2797 12.4756 18.0098 12.4756ZM16.0566 15.8936C15.787 15.8936 15.5684 15.6749 15.5684 15.4053C15.5684 15.1355 15.787 14.917 16.0566 14.917C16.3263 14.917 16.5449 15.1355 16.5449 15.4053C16.5449 15.6749 16.3263 15.8936 16.0566 15.8936Z" fill="#9689A8"/>
<path d="M5.47006 5.5752H9.67903C9.73763 5.5752 9.79622 5.5752 9.86458 5.56543L10.6263 3.29001C10.7477 2.98688 10.5012 2.64551 10.1673 2.64551H8.90758C8.59508 2.64551 8.29235 2.51855 8.06771 2.30368C7.66732 1.89352 7.12044 1.66895 6.54424 1.66895H4.30795C3.96729 1.66895 3.70437 2.02048 3.8685 2.37204L5.47006 5.5752Z" fill="#9689A8"/>
<path d="M5.77083 12.932C5.77083 12.1242 6.42793 11.4671 7.23568 11.4671H12.8997C12.274 9.69489 11.2893 7.86585 10.224 6.55176H5.22396C3.36846 8.81738 1.83203 12.4729 1.83203 14.8851C1.83203 17.81 3.06097 18.2911 5.77083 18.3318V12.932Z" fill="#9689A8"/>
</svg>
