<svg width="29" height="28" viewBox="0 0 29 28" fill="none" xmlns="http://www.w3.org/2000/svg">
<path fill-rule="evenodd" clip-rule="evenodd" d="M17.9423 22.1609H4.50158C3.44317 22.1609 2.58203 21.2997 2.58203 20.2413C2.58203 20.1319 2.59355 20.034 2.60939 19.926L5.5024 6.40726C5.67376 5.5303 6.46578 4.88086 7.38163 4.88086H16.0214H16.9823H20.821C21.7368 4.88086 22.5288 5.5303 22.7045 6.42454L24.2049 13.4246C23.5517 13.1511 22.8345 13 22.082 13C19.0445 13 16.582 15.4624 16.582 18.5C16.582 19.9058 17.1095 21.1885 17.9773 22.1609H17.9423ZM14.1019 15.4395C11.985 15.4395 10.2613 13.7172 10.2613 11.599V9.67946C10.2613 9.14954 10.6919 8.71898 11.2218 8.71898C11.7518 8.71898 12.1823 9.14954 12.1823 9.67946V11.599C12.1823 12.6574 13.0435 13.5185 14.1019 13.5185C15.1603 13.5185 16.0214 12.6588 16.0214 11.6004V9.6809C16.0214 9.15098 16.452 8.72042 16.9819 8.72042C17.5119 8.72042 17.9424 9.15098 17.9424 9.6809V11.6004C17.941 13.7172 16.2187 15.4395 14.1019 15.4395Z" fill="#B6ADC2"/>
<path fill-rule="evenodd" clip-rule="evenodd" d="M22.2503 23.1216C24.6429 23.1216 26.5826 21.182 26.5826 18.7893C26.5826 16.3967 24.6429 14.457 22.2503 14.457C19.8576 14.457 17.918 16.3967 17.918 18.7893C17.918 21.182 19.8576 23.1216 22.2503 23.1216ZM25.121 17.4992C25.2988 17.305 25.2988 16.99 25.121 16.7957C24.9434 16.6014 24.5183 16.5042 24.3406 16.6984L21.8293 19.4437L20.7219 18.4142C20.5442 18.2199 20.1499 18.3501 19.9723 18.5444C19.7945 18.7386 19.7945 19.0536 19.9723 19.2478L21.4253 20.8366C21.603 21.0309 21.891 21.0309 22.0687 20.8366L25.121 17.4992Z" fill="#B6ADC2"/>
</svg>
