<svg width="40" height="40" viewBox="0 0 40 40" fill="none" xmlns="http://www.w3.org/2000/svg">
<path fill-rule="evenodd" clip-rule="evenodd" d="M28.6336 32.8554H34.2868C35.8618 32.8554 37.1432 31.574 37.1432 29.999C37.1432 29.834 37.1261 29.6904 37.0832 29.414L32.8017 9.43826C32.5403 8.10754 31.3617 7.14111 29.9988 7.14111H22.8566C22.842 7.14111 22.8275 7.14133 22.813 7.14176H9.99969C8.63681 7.14176 7.45822 8.10819 7.20321 9.41319L2.89814 29.5303C2.87457 29.691 2.85742 29.8368 2.85742 29.9996C2.85742 31.5746 4.13887 32.8561 5.7139 32.8561H28.5722C28.5927 32.8561 28.6131 32.8558 28.6336 32.8554ZM14.2849 17.1397C14.2849 20.2919 16.85 22.8547 20 22.8547C23.1501 22.8547 25.713 20.2919 25.7151 17.1419V14.2854C25.7151 13.4969 25.0744 12.8561 24.2858 12.8561C23.4972 12.8561 22.8565 13.4969 22.8565 14.2854V17.1419C22.8565 18.7169 21.575 19.9961 20 19.9961C18.425 19.9961 17.1435 18.7147 17.1435 17.1397V14.2833C17.1435 13.4947 16.5028 12.854 15.7142 12.854C14.9256 12.854 14.2849 13.4947 14.2849 14.2833V17.1397Z" fill="#B6ADC2"/>
</svg>
