<svg width="24" height="24" viewBox="0 0 24 24" fill="none" xmlns="http://www.w3.org/2000/svg">
<path d="M15.1648 4.76351C15.1204 4.62435 15.0079 4.51855 14.8663 4.48438C14.7255 4.44938 14.5756 4.49109 14.473 4.59444L12.713 6.35449L11.3655 5.96855L10.9796 4.62109L12.7396 2.86104C12.843 2.7585 12.8847 2.60938 12.8497 2.46777C12.8155 2.32617 12.7097 2.21265 12.5706 2.16931C12.2155 2.05701 11.8363 2.00024 11.4447 2.00024C9.3005 2.00024 7.5555 3.74443 7.5555 5.8894C7.5555 6.34351 7.63139 6.78194 7.78215 7.19617L2.48877 12.4893C2.17383 12.8045 2.00049 13.222 2.00049 13.6669C2.00049 14.1119 2.17383 14.5293 2.48958 14.8445C2.80391 15.1602 3.22221 15.3336 3.66715 15.3336C4.1121 15.3336 4.52958 15.1602 4.84473 14.8445L10.1379 9.55111C10.5521 9.70105 10.9906 9.77775 11.4447 9.77775C13.5888 9.77775 15.3338 8.03357 15.3338 5.88859C15.3338 5.49776 15.2771 5.11853 15.1648 4.76351Z" fill="#534667"/>
<path d="M15.1648 4.76351C15.1204 4.62435 15.0079 4.51855 14.8663 4.48438C14.7255 4.44938 14.5756 4.49109 14.473 4.59444L12.713 6.35449L11.3655 5.96855L10.9796 4.62109L12.7396 2.86104C12.843 2.7585 12.8847 2.60938 12.8497 2.46777C12.8155 2.32617 12.7097 2.21265 12.5706 2.16931C12.2155 2.05701 11.8363 2.00024 11.4447 2.00024C9.3005 2.00024 7.5555 3.74443 7.5555 5.8894C7.5555 6.34351 7.63139 6.78194 7.78215 7.19617L2.48877 12.4893C2.17383 12.8045 2.00049 13.222 2.00049 13.6669C2.00049 14.1119 2.17383 14.5293 2.48958 14.8445C2.80391 15.1602 3.22221 15.3336 3.66715 15.3336C4.1121 15.3336 4.52958 15.1602 4.84473 14.8445L10.1379 9.55111C10.5521 9.70105 10.9906 9.77775 11.4447 9.77775C13.5888 9.77775 15.3338 8.03357 15.3338 5.88859C15.3338 5.49776 15.2771 5.11853 15.1648 4.76351Z" stroke="#534667"/>
<path d="M8.80072 21.0374L8.80068 21.0374C8.51498 20.7507 8.48897 20.2961 8.74083 19.9803L8.74086 19.9803L10.1568 18.207C10.1569 18.2068 10.157 18.2067 10.1572 18.2065C10.191 18.1632 10.2307 18.1281 10.2739 18.0989L10.2743 18.0987L11.0739 17.5647C11.074 17.5647 11.074 17.5647 11.0741 17.5646C11.2546 17.4431 11.4625 17.3844 11.6681 17.3844C11.8551 17.3844 12.0403 17.434 12.2045 17.5288L14.7601 14.9645L14.4458 14.6503C14.2427 14.4481 14.1314 14.1783 14.1314 13.8919C14.1314 13.6053 14.2437 13.3357 14.4457 13.1337L18.3739 9.20546C18.786 8.79336 19.3348 8.56618 19.9179 8.56618C20.5011 8.56618 21.0498 8.79336 21.4619 9.20546C21.874 9.61755 22.1012 10.1663 22.1012 10.7495C22.1012 11.3326 21.8741 11.8813 21.4629 12.2934L21.4628 12.2935L17.5345 16.2218C17.1281 16.6282 16.4239 16.6284 16.0181 16.2218L8.80072 21.0374ZM8.80072 21.0374L9.62737 21.8658L9.62744 21.8658M8.80072 21.0374L9.62744 21.8658M15.6881 15.8918L16.0181 16.2217L15.6881 15.8918ZM15.6881 15.8918L13.1225 18.4662C13.3197 18.8089 13.3272 19.2413 13.0972 19.5872L13.0972 19.5872L12.5639 20.3889L12.5635 20.3894C12.5337 20.4335 12.4977 20.4727 12.4564 20.5057L10.6866 21.9247L15.6881 15.8918ZM9.62744 21.8658C9.91503 22.1534 10.3708 22.1785 10.6865 21.9248L9.62744 21.8658Z" fill="#534667" stroke="#534667" stroke-width="0.2"/>
<path d="M12.8882 18.5579L12.9945 18.6667L13.1018 18.559L15.6882 15.9638L15.9827 16.2583C15.9827 16.2583 15.9827 16.2584 15.9828 16.2584C16.4081 16.6846 17.1439 16.6844 17.5699 16.2584L21.4981 12.3301L21.4982 12.33C21.9188 11.9086 22.1512 11.3471 22.1512 10.7508C22.1512 10.1544 21.9188 9.59287 21.4973 9.17139C21.0758 8.7499 20.5143 8.51746 19.9179 8.51746C19.3215 8.51746 18.76 8.7499 18.3386 9.17139L14.4103 13.0997C14.199 13.311 14.0814 13.5933 14.0814 13.8932C14.0814 14.1928 14.1979 14.4752 14.4104 14.6869C14.4105 14.6869 14.4105 14.687 14.4106 14.687L14.6894 14.9659L12.1127 17.5514L12.0083 17.6562L12.1116 17.7621L12.8882 18.5579Z" fill="#534667" stroke="#534667" stroke-width="0.3"/>
</svg>
