<svg width="29" height="28" viewBox="0 0 29 28" fill="none" xmlns="http://www.w3.org/2000/svg">
<g filter="url(#filter0_d_1_2208)">
<path d="M12.0002 6.52805C11.5354 6.52805 11.1577 6.15167 11.1577 5.68561V4.84317C11.1577 4.37838 11.5354 4.00073 12.0002 4.00073C12.4649 4.00073 12.8413 4.37838 12.8413 4.84317V5.68561C12.8413 6.15041 12.4649 6.52805 12.0002 6.52805Z" fill="#534667"/>
<path d="M14.9462 6.52898C14.7302 6.52898 14.5155 6.44689 14.3513 6.28269C14.0229 5.95431 14.0229 5.42131 14.3513 5.09166L15.1937 4.24922C15.5221 3.92083 16.0551 3.92083 16.3847 4.24922C16.7131 4.57761 16.7131 5.1106 16.3847 5.44026L15.5423 6.28269C15.3769 6.44689 15.1609 6.52898 14.9462 6.52898Z" fill="#534667"/>
<path d="M9.05227 6.52801C8.83629 6.52801 8.62158 6.44591 8.45738 6.28172L7.61494 5.43928C7.28656 5.11089 7.28656 4.57789 7.61494 4.24824C7.94333 3.91986 8.47633 3.91986 8.80598 4.24824L9.64842 5.09068C9.9768 5.41907 9.9768 5.95207 9.64842 6.28172C9.48296 6.44591 9.26825 6.52801 9.05227 6.52801Z" fill="#534667"/>
<path d="M24.1246 8.52543C24.0109 8.33092 23.8037 8.21094 23.5777 8.21094H9.89528C6.64551 8.21094 4.00073 10.8557 4.00073 14.1055C4.00073 17.3553 6.64551 20 9.89528 20C13.1451 20 15.7898 17.3553 15.7898 14.1055V12.6315C15.7898 12.5153 15.8846 12.4206 16.0008 12.4206H20.4289C21.5593 12.4206 22.6102 11.8118 23.171 10.8292L24.1271 9.15442C24.2382 8.95991 24.237 8.71994 24.1246 8.52543V8.52543ZM9.89528 17.4727C8.03484 17.4727 6.52679 15.9647 6.52679 14.1042C6.52679 12.245 8.03484 10.737 9.89528 10.737C11.7557 10.737 13.2638 12.245 13.2638 14.1055C13.2638 15.9647 11.7557 17.4727 9.89528 17.4727V17.4727Z" fill="#534667"/>
</g>
<defs>
<filter id="filter0_d_1_2208" x="0.000732422" y="4.00073" width="28.209" height="23.9993" filterUnits="userSpaceOnUse" color-interpolation-filters="sRGB">
<feFlood flood-opacity="0" result="BackgroundImageFix"/>
<feColorMatrix in="SourceAlpha" type="matrix" values="0 0 0 0 0 0 0 0 0 0 0 0 0 0 0 0 0 0 127 0" result="hardAlpha"/>
<feOffset dy="4"/>
<feGaussianBlur stdDeviation="2"/>
<feComposite in2="hardAlpha" operator="out"/>
<feColorMatrix type="matrix" values="0 0 0 0 0 0 0 0 0 0 0 0 0 0 0 0 0 0 0.25 0"/>
<feBlend mode="normal" in2="BackgroundImageFix" result="effect1_dropShadow_1_2208"/>
<feBlend mode="normal" in="SourceGraphic" in2="effect1_dropShadow_1_2208" result="shape"/>
</filter>
</defs>
</svg>
