<svg width="48" height="48" viewBox="0 0 48 48" fill="none" xmlns="http://www.w3.org/2000/svg">
<path fill-rule="evenodd" clip-rule="evenodd" d="M24 48C37.2548 48 48 37.2548 48 24C48 10.7452 37.2548 0 24 0C10.7452 0 0 10.7452 0 24C0 37.2548 10.7452 48 24 48ZM36.7546 15.2471V23.3169C37.7099 23.6373 38.3995 24.4876 38.3995 25.4946V27.0414C38.3995 27.4689 38.0317 27.8148 37.5771 27.8148H34.2874C33.8329 27.8148 33.465 27.4689 33.465 27.0414V25.4946C33.465 24.4876 34.1546 23.6372 35.1099 23.3169V15.6926L31.8202 16.5765V17.4917C31.8202 18.3724 31.3005 19.1813 30.4966 19.5529C26.8085 21.2553 22.0266 21.256 18.3402 19.5521C17.5362 19.1805 17.0166 18.3716 17.0166 17.4917V16.5765L12.6788 15.411C12.3254 15.3158 12.082 15.0122 12.082 14.667C12.082 14.3219 12.3254 14.0183 12.6788 13.9231L24.1927 10.8295C24.3404 10.7902 24.4962 10.7902 24.644 10.8295L36.1579 13.9231C36.5113 14.0183 36.7546 14.3219 36.7546 14.667C36.7546 14.7301 36.7279 14.7843 36.7009 14.839C36.6888 14.8634 36.6767 14.888 36.6669 14.9135C36.7194 15.0154 36.7546 15.1261 36.7546 15.2471ZM31.1268 21.0439C29.0595 21.9993 26.7071 22.5038 24.3241 22.5038C21.9412 22.5038 19.588 21.9985 17.5199 21.0431C17.3692 20.9735 17.2379 20.8788 17.1064 20.784C17.0616 20.7517 17.0167 20.7194 16.9711 20.688C17.1468 23.4717 18.7394 25.8338 20.9902 27.044C20.9902 27.044 22.1447 27.557 22.5054 27.6533L22.5069 27.6508C23.0911 27.8074 23.6925 27.9176 24.3241 27.9176C24.9023 27.9176 25.726 27.8091 26.5491 27.5233C26.9282 27.3963 27.6553 27.0456 27.6553 27.0456C29.9075 25.8358 31.5012 23.473 31.6771 20.6883C31.6315 20.7196 31.5868 20.7518 31.542 20.784C31.4099 20.8791 31.2781 20.974 31.1268 21.0439ZM22.3986 29.2284C23.0203 29.3695 23.6584 29.4657 24.3213 29.4657C24.9805 29.4657 25.6148 29.3705 26.2332 29.231L24.3213 31.9399L22.3986 29.2284ZM29.0584 28.0913L29.0584 28.0913C29.0507 28.0952 29.043 28.099 29.0358 28.1036L28.3441 29.0793C28.3441 29.1135 25.5001 33.1153 25.1957 33.5436L25.1953 33.5443L25.1695 33.5805V37.2H35.861C36.3156 37.2 36.6834 36.8541 36.6834 36.4266C36.6834 32.2031 33.3779 28.7363 29.0812 28.0789C29.0739 28.0835 29.0662 28.0874 29.0584 28.0913ZM19.6121 28.081C19.6191 28.0845 19.6261 28.088 19.6327 28.0921C19.8814 28.4442 20.0062 28.6209 20.1311 28.7977C20.4655 29.2708 20.8003 29.7437 23.5139 33.5779V37.1975H12.8224C12.3678 37.1975 12 36.8516 12 36.4241C12 32.2033 15.2989 28.7313 19.591 28.0694C19.5978 28.0737 19.605 28.0773 19.6121 28.081Z" fill="#B6ADC2"/>
</svg>
