<svg width="24" height="24" viewBox="0 0 24 24" fill="none" xmlns="http://www.w3.org/2000/svg">
<path fill-rule="evenodd" clip-rule="evenodd" d="M8.97525 5H19.7088C20.9725 5 22 6.07887 22 7.40703V16.5943C22 17.9211 20.9725 19 19.7088 19H8.97525C8.3414 19 7.73014 18.7206 7.29894 18.2335L2.16777 12.4483C1.94408 12.1961 1.94408 11.8052 2.16777 11.553L7.29894 5.76646C7.73014 5.27941 8.3414 5 8.97525 5ZM7.38037 10.5C6.55194 10.5 5.88037 11.1716 5.88037 12C5.88037 12.8284 6.55194 13.5 7.38037 13.5C8.2088 13.5 8.88037 12.8284 8.88037 12C8.88037 11.1716 8.2088 10.5 7.38037 10.5Z" fill="#9689A8"/>
</svg>
