<svg width="48" height="48" viewBox="0 0 48 48" fill="none" xmlns="http://www.w3.org/2000/svg">
<path d="M24.0011 0C10.747 0 0 10.7449 0 24C0 37.2551 10.746 48 24.0011 48C37.2572 48 48.0021 37.2551 48.0021 24C48.0021 10.7449 37.2572 0 24.0011 0ZM24.0011 7.17628C28.3867 7.17628 31.9406 10.7312 31.9406 15.1148C31.9406 19.4994 28.3867 23.0533 24.0011 23.0533C19.6175 23.0533 16.0636 19.4994 16.0636 15.1148C16.0636 10.7312 19.6175 7.17628 24.0011 7.17628ZM23.9958 41.7251C19.6217 41.7251 15.6155 40.1321 12.5255 37.4955C11.7728 36.8534 11.3385 35.912 11.3385 34.9241C11.3385 30.4784 14.9366 26.9203 19.3834 26.9203H28.6208C33.0687 26.9203 36.6531 30.4784 36.6531 34.9241C36.6531 35.913 36.2209 36.8524 35.4671 37.4944C32.3781 40.1321 28.3709 41.7251 23.9958 41.7251Z" fill="#B6ADC2"/>
</svg>
