<svg width="19" height="24" viewBox="0 0 19 24" fill="none" xmlns="http://www.w3.org/2000/svg">
<path d="M6.67188 6.25C5.08631 6.25 3.79688 4.96057 3.79688 3.375C3.79688 1.78944 5.08631 0.5 6.67188 0.5C8.25744 0.5 9.54688 1.78944 9.54688 3.375C9.54688 4.96057 8.25744 6.25 6.67188 6.25Z" fill="#9689A8"/>
<path fill-rule="evenodd" clip-rule="evenodd" d="M6.90067 23.4999H8.13655C9.2667 23.4999 10.1859 22.7481 10.1877 21.8223V16.9047V16.6905V15.985V12.7634L10.4751 12.9916C10.6431 13.125 10.8864 13.1022 11.0266 12.9398L14.5504 8.85933C14.7922 8.57925 14.5568 8.14917 14.1905 8.20199L12.6526 8.42376C12.5699 8.43569 12.493 8.47323 12.4327 8.53111L11.1631 9.74992C10.8685 8.32658 10.0079 7.20728 8.13655 7.20728H5.20658C2.78456 7.20728 0.8125 8.81871 0.8125 10.801V14.7613C0.8125 15.401 1.24664 15.976 1.94617 16.2621L2.65234 16.5509V10.9869H3.15234V16.8697C3.15438 16.8812 3.15542 16.8929 3.15542 16.9047V21.8223C3.15542 22.7481 4.07642 23.4999 5.20658 23.4999H6.40067V17.0006H6.90067V23.4999Z" fill="#9689A8"/>
<path d="M17.7838 3.78751L12.8709 9.33163" stroke="#9689A8" stroke-width="0.6" stroke-linecap="round" stroke-linejoin="round"/>
</svg>
