<svg width="24" height="24" viewBox="0 0 24 24" fill="none" xmlns="http://www.w3.org/2000/svg">
<path d="M10.6719 6.25C9.08631 6.25 7.79688 4.96057 7.79688 3.375C7.79688 1.78944 9.08631 0.5 10.6719 0.5C12.2574 0.5 13.5469 1.78944 13.5469 3.375C13.5469 4.96057 12.2574 6.25 10.6719 6.25Z" fill="#29AFBD"/>
<path fill-rule="evenodd" clip-rule="evenodd" d="M10.9007 23.4999H12.1365C13.2667 23.4999 14.1859 22.7481 14.1877 21.8223V16.9047V16.6905V15.985V12.7634L14.4751 12.9916C14.6431 13.125 14.8864 13.1022 15.0266 12.9398L18.5504 8.85933C18.7922 8.57925 18.5568 8.14917 18.1905 8.20199L16.6526 8.42376C16.5699 8.43569 16.493 8.47323 16.4327 8.53111L15.1631 9.74992C14.8685 8.32658 14.0079 7.20728 12.1365 7.20728H9.20658C6.78456 7.20728 4.8125 8.81871 4.8125 10.801V14.7613C4.8125 15.401 5.24664 15.976 5.94617 16.2621L6.65234 16.5509V10.9869H7.15234V16.8697C7.15438 16.8812 7.15542 16.8929 7.15542 16.9047V21.8223C7.15542 22.7481 8.07642 23.4999 9.20658 23.4999H10.4007V17.0006H10.9007V23.4999Z" fill="#29AFBD"/>
<path d="M21.7838 3.78751L16.8709 9.33163" stroke="#29AFBD" stroke-width="0.6" stroke-linecap="round" stroke-linejoin="round"/>
</svg>
