<svg width="24" height="24" viewBox="0 0 24 24" fill="none" xmlns="http://www.w3.org/2000/svg">
<path d="M7.12458 6.58336H5.6658V2.83328C5.6658 2.37202 5.29329 1.99951 4.83203 1.99951C4.37202 1.99951 3.99951 2.37202 3.99951 2.83328V9.70843C3.99951 10.0534 4.27952 10.3334 4.62453 10.3334H7.12458C7.46959 10.3334 7.74959 10.0534 7.74959 9.70843V7.20837C7.74959 6.86337 7.46959 6.58336 7.12458 6.58336Z" fill="#9689A8"/>
<path d="M19.8324 2.83352C19.8324 2.37226 19.4598 1.99976 18.9998 1.99976C18.5386 1.99976 18.1661 2.37226 18.1661 2.83352V6.5836H16.7073C16.3623 6.5836 16.0823 6.86361 16.0823 7.20862V9.70867C16.0823 10.0537 16.3623 10.3337 16.7073 10.3337H19.2073C19.5523 10.3337 19.8324 10.0537 19.8324 9.70867V2.83352Z" fill="#9689A8"/>
<path d="M12.7487 13.7151V17.8327C12.7487 18.2927 12.3762 18.6664 11.915 18.6664C11.4549 18.6664 11.0812 18.2927 11.0812 17.8327V13.7151C7.33736 14.1313 4.41479 17.3127 4.41479 21.1652V21.374C4.41479 21.719 4.6948 21.999 5.03981 21.999H18.7901C19.1351 21.999 19.4151 21.719 19.4151 21.374V21.1652C19.4151 17.3127 16.4926 14.1313 12.7487 13.7151Z" fill="#9689A8"/>
<path d="M15.0397 3.66553H8.78959C7.52581 3.66553 6.49829 4.69305 6.49829 5.95683V9.70691C6.49829 10.9707 7.52581 11.9982 8.78959 11.9982H15.0397C16.3035 11.9982 17.331 10.9707 17.331 9.70691V5.95683C17.331 4.6943 16.3035 3.66553 15.0397 3.66553ZM9.83086 8.66563C9.1421 8.66563 8.58084 8.10437 8.58084 7.41561C8.58084 6.72684 9.1421 6.16558 9.83086 6.16558C10.5196 6.16558 11.0809 6.72684 11.0809 7.41561C11.0809 8.10562 10.5209 8.66563 9.83086 8.66563ZM13.9985 8.66563C13.3097 8.66563 12.7484 8.10437 12.7484 7.41561C12.7484 6.72684 13.3097 6.16558 13.9985 6.16558C14.6872 6.16558 15.2485 6.72684 15.2485 7.41561C15.2485 8.10562 14.6872 8.66563 13.9985 8.66563Z" fill="#9689A8"/>
</svg>
