<svg width="101" height="100" viewBox="0 0 101 100" fill="none" xmlns="http://www.w3.org/2000/svg">
<path d="M50.582 6C74.8633 6 94.582 25.7187 94.582 50C94.582 74.2813 74.8633 94 50.582 94C26.3007 94 6.58203 74.2813 6.58203 50C6.58203 25.7187 26.3007 6 50.582 6Z" fill="#FF005C" fill-opacity="0.5" stroke="#FFDD6F" stroke-width="12"/>
<path d="M50.5809 8.57227C73.4453 8.57227 92.0095 27.1364 92.0095 50.0008C92.0095 72.8653 73.4453 91.4294 50.5809 91.4294C27.7165 91.4294 9.15234 72.8653 9.15234 50.0008C9.15234 27.1364 27.7165 8.57227 50.5809 8.57227Z" fill="#F7A506"/>
<path d="M50.5814 72.2855C47.8231 72.2855 45.582 69.9795 45.582 67.1413C45.582 64.3031 47.8156 61.9971 50.5814 61.9971C53.3397 61.9971 55.5808 64.2954 55.5808 67.1413C55.5808 69.9872 53.3397 72.2855 50.5814 72.2855Z" fill="white"/>
<path d="M55.5808 50.8532C55.5808 53.6914 53.3472 55.9974 50.5814 55.9974C47.8156 55.9974 45.582 53.6914 45.582 50.8532V32.86C45.582 30.0218 47.8156 27.7158 50.5814 27.7158C53.3472 27.7158 55.5808 30.0218 55.5808 32.86V50.8532Z" fill="white"/>
</svg>
