<svg width="38" height="38" viewBox="0 0 38 38" fill="none" xmlns="http://www.w3.org/2000/svg">
<path d="M20.786 15.857C20.4574 15.857 20.1905 15.6007 20.1905 15.2854V14.4283H17.8092V15.2854C17.8092 15.6007 17.5423 15.857 17.2137 15.857C16.8851 15.857 16.6182 15.6007 16.6182 15.2854V14.4283C16.6182 13.7984 17.1521 13.2859 17.8083 13.2859H20.1896C20.8458 13.2859 21.3798 13.7984 21.3798 14.4283V15.2854C21.3816 15.6016 21.1146 15.857 20.786 15.857Z" fill="#42246E"/>
<path d="M19.4226 20.9329C19.3155 20.9732 19.161 21.0015 19.0003 21.0015C18.8396 21.0015 18.6851 20.9732 18.5422 20.9217L11.8574 18.7852V23.1449C11.8574 24.0131 12.5896 24.7159 13.494 24.7159H24.5056C25.4101 24.7159 26.1422 24.0131 26.1422 23.1449V18.7852L19.4226 20.9329Z" fill="#42246E"/>
<path d="M26.1431 16.5728V17.8815L19.1431 20.1209C19.0958 20.1381 19.0476 20.1441 19.0003 20.1441C18.953 20.1441 18.9047 20.1381 18.8574 20.1209L11.8574 17.8806V16.5719C11.8574 15.7037 12.5896 15.001 13.494 15.001H24.5056C25.411 15.001 26.1431 15.7037 26.1431 16.5728Z" fill="#42246E"/>
<path d="M20.1261 36.1064L20.109 36.1076C19.1168 36.1718 18.1212 36.1504 17.1438 36.0462C16.3588 35.9618 15.7913 35.2556 15.8759 34.4728C15.9604 33.69 16.6627 33.127 17.4493 33.2048C18.2646 33.2937 19.0968 33.3107 19.9243 33.2571C20.7112 33.2061 21.4006 33.8035 21.4516 34.5904C21.5025 35.3774 20.913 36.0555 20.1261 36.1064ZM24.0243 33.9643C23.707 33.2418 24.0345 32.3982 24.757 32.0808C25.5149 31.7483 26.2468 31.3444 26.9362 30.8831C27.5908 30.4456 28.4782 30.6201 28.918 31.2766C29.3576 31.931 29.181 32.8185 28.5245 33.2583C27.6972 33.8122 26.8159 34.2966 25.9078 34.6969C25.1685 35.0196 24.3363 34.6699 24.0243 33.9643ZM11.4272 34.383C10.5377 33.9446 9.6793 33.4226 8.87463 32.8348C8.23677 32.3693 8.09934 31.4742 8.56493 30.8385C9.03039 30.2006 9.92552 30.0632 10.5612 30.5288C11.233 31.02 11.9483 31.4546 12.6892 31.8211C13.3968 32.1704 13.6864 33.0277 13.337 33.7332C12.9902 34.445 12.1304 34.7304 11.4272 34.383ZM30.8266 29.4479C30.1909 28.9824 30.0535 28.0872 30.5212 27.4514C31.0124 26.7796 31.4492 26.0642 31.8156 25.3232C32.167 24.6155 33.0222 24.326 33.73 24.6774C34.4376 25.0267 34.7272 25.8841 34.3758 26.5918C33.9373 27.4792 33.4132 28.3399 32.8232 29.1425C32.3594 29.7738 31.4647 29.9177 30.8266 29.4479ZM6.03469 29.1707C5.54286 29.2026 5.04952 28.979 4.75486 28.5407C4.20107 27.7155 3.7168 26.8364 3.31426 25.9262C2.99476 25.2039 3.32234 24.3603 4.04249 24.0409C4.76705 23.7234 5.60843 24.049 5.92779 24.7691C6.26248 25.5269 6.66648 26.2609 7.12759 26.9483C7.74307 27.864 7.13167 29.0996 6.03469 29.1707ZM34.4697 22.1407C33.6848 22.0563 33.1194 21.3499 33.2039 20.5671C33.2924 19.7454 33.3112 18.9089 33.2574 18.077C33.2064 17.2901 33.8023 16.5772 34.5892 16.5263C35.3761 16.4753 36.0524 17.037 36.1034 17.824L36.1078 17.8924C36.1722 18.8867 36.1514 19.8909 36.0433 20.8749C35.9588 21.6578 35.2548 22.2273 34.4697 22.1407ZM3.41346 21.4576C2.62654 21.5086 1.947 20.9298 1.89602 20.1429C1.89602 20.1429 1.84962 18.1339 1.95408 17.1608C2.03866 16.378 2.73604 15.8067 3.52755 15.8929C4.31251 15.9773 4.87993 16.6814 4.79549 17.4663C4.7083 18.2751 4.69107 19.1029 4.74426 19.9241C4.79524 20.711 4.20039 21.4066 3.41346 21.4576ZM32.0612 13.2027C31.7266 12.4471 31.3206 11.7154 30.8574 11.0281C30.4156 10.3739 30.59 9.48649 31.2443 9.0447C31.8964 8.60305 32.7881 8.77721 33.2277 9.43158C33.7838 10.2588 34.2723 11.1376 34.6746 12.0435C34.9941 12.7658 34.6686 13.6093 33.9485 13.9287C33.2199 14.2507 32.3803 13.9186 32.0612 13.2027ZM4.26285 13.3543C3.55522 13.005 3.26362 12.1499 3.6129 11.4423C4.05318 10.5484 4.57293 9.68802 5.16085 8.88547C5.62631 8.24762 6.5213 8.10805 7.15715 8.57578C7.795 9.04124 7.93244 9.93637 7.46685 10.5721C6.97767 11.2415 6.543 11.9568 6.17684 12.7021C5.8237 13.4164 4.96393 13.7018 4.26285 13.3543ZM27.4135 7.45473C26.744 6.96555 26.0267 6.53316 25.2836 6.16686C24.5761 5.81972 24.2824 4.96478 24.6315 4.25501C24.9785 3.54538 25.8335 3.25164 26.5434 3.60292C27.4371 4.04106 28.2975 4.56081 29.1001 5.14873C29.7379 5.61419 29.8774 6.50704 29.4119 7.14489C28.9442 7.78075 28.0513 7.92018 27.4135 7.45473ZM9.05724 6.7477C8.61759 6.09333 8.79202 5.20591 9.44639 4.76626C10.2716 4.21247 11.1506 3.72606 12.0607 3.32353C12.7832 3.00616 13.6265 3.32947 13.9439 4.05189C14.2633 4.77204 13.938 5.61769 13.2155 5.93506C12.4577 6.26974 11.726 6.67575 11.0387 7.13686C10.3864 7.57637 9.49675 7.39994 9.05724 6.7477ZM20.5221 4.79393C19.7134 4.70888 18.892 4.69123 18.0773 4.744C17.2904 4.79498 16.5861 4.19854 16.5351 3.41162C16.4841 2.6247 17.0544 1.94785 17.8413 1.89687L17.8926 1.89355C18.8677 1.83038 19.8525 1.85034 20.8212 1.95293C21.6061 2.03737 22.1756 2.73917 22.0933 3.52399C22.0091 4.31322 21.2982 4.87464 20.5221 4.79393Z" fill="#42246E"/>
</svg>
